<svg width="66" height="56" viewBox="0 0 66 56" fill="none" xmlns="http://www.w3.org/2000/svg">
<g clip-path="url(#clip0_363_2294)">
<path d="M33.9312 0.738598C33.6797 0.869846 33.4281 1.12141 33.2969 1.38391C33.1 1.77766 33.0781 2.01828 33.0781 4.44641V7.07141H30.4531C28.025 7.07141 27.7844 7.09328 27.3906 7.29016C27.1062 7.43235 26.8766 7.66203 26.7344 7.94641C26.5266 8.3511 26.5156 8.58079 26.5156 12.7042V17.0245H23.8906C21.4625 17.0245 21.2219 17.0464 20.8281 17.2433C20.5437 17.3855 20.3141 17.6152 20.1719 17.8995C19.9641 18.3152 19.9531 18.5339 19.9531 24.7573V31.1886L17.8969 32.0527C14.1125 33.6495 13.8937 33.7698 13.6312 34.3277C13.5 34.5902 13.3906 34.9183 13.3906 35.0605C13.3906 35.2355 17.8531 50.9745 18.4875 53.0527C18.5531 53.2386 18.5094 53.2495 18.0938 53.1839C17.3828 53.0745 17.1312 52.8886 16.1469 51.8167C15.3703 50.9745 15.1078 50.7558 14.3422 50.3839C12.9859 49.7167 11.6078 49.5417 10.875 49.9355C10.4156 50.1761 10 50.8433 10 51.3573C10 52.2214 10.8531 53.0089 11.8156 53.0089C12.5375 53.0089 13.2922 53.4464 13.8719 54.2011C15.5891 56.4323 18.4109 57.1105 20.9156 55.8964C21.55 55.5792 22.5562 54.7042 23.0703 54.0042C23.475 53.4464 24.3062 53.0089 24.9516 53.0089C25.7063 53.0089 26.3406 53.3808 27.0078 54.212C28.8016 56.4652 31.525 57.1105 34.0406 55.8964C34.675 55.5792 35.6812 54.7042 36.1953 54.0042C36.6 53.4464 37.4312 53.0089 38.0766 53.0089C38.8312 53.0089 39.4656 53.3808 40.1328 54.212C41.9266 56.4652 44.65 57.1105 47.1656 55.8964C47.8 55.5792 48.8062 54.7042 49.3203 54.0042C49.725 53.4464 50.5562 53.0089 51.2016 53.0089C51.9562 53.0089 52.5906 53.3808 53.2578 54.212C55.0625 56.4652 57.7531 57.1105 60.3125 55.8855C60.7391 55.6886 61.2531 55.2511 62.0625 54.4417C63.2109 53.2714 63.6375 53.0089 64.3703 53.0089C64.775 53.0089 65.4969 52.6042 65.7047 52.2542C65.825 52.0464 65.8906 51.7073 65.8906 51.2698C65.8906 50.6573 65.8578 50.5808 65.5078 50.2308C65.0703 49.7933 64.6109 49.673 63.7797 49.7605C62.2812 49.9464 60.8594 50.7448 59.8531 51.9917C59.175 52.823 58.7047 53.1183 57.9281 53.2058C57.4906 53.2495 57.4469 53.2386 57.5125 53.0527C58.2234 50.7011 62.6094 35.2355 62.6094 35.0605C62.6094 34.9183 62.5 34.5902 62.3687 34.3277C62.1063 33.7698 61.8875 33.6495 58.1031 32.0527L56.0469 31.1886V24.7573C56.0469 18.5339 56.0359 18.3152 55.8281 17.8995C55.6859 17.6152 55.4562 17.3855 55.1719 17.2433C54.7781 17.0464 54.5375 17.0245 52.1094 17.0245H49.4844V12.7042C49.4844 8.58079 49.4734 8.3511 49.2656 7.94641C49.1234 7.66203 48.8937 7.43235 48.6094 7.29016C48.2156 7.09328 47.975 7.07141 45.5469 7.07141H42.9219V4.44641C42.9219 2.01828 42.9 1.77766 42.7031 1.38391C42.5609 1.09953 42.3312 0.869846 42.0469 0.727657C41.6422 0.519848 41.4125 0.508907 37.9781 0.508907C34.5656 0.519848 34.3141 0.530785 33.9312 0.738598ZM39.6406 5.43078V7.07141H38H36.3594V5.43078V3.79016H38H39.6406V5.43078ZM46.2031 13.6886V17.0245H38H29.7969V13.6886V10.3527H38H46.2031V13.6886ZM52.7656 25.0089C52.7656 27.5902 52.7328 29.712 52.7 29.712C52.6672 29.712 49.4188 28.3339 45.4922 26.6495C41.1609 24.7902 38.2078 23.587 38 23.587C37.7922 23.587 34.8391 24.7902 30.5078 26.6495C26.5812 28.3339 23.3328 29.712 23.3 29.712C23.2672 29.712 23.2344 27.5902 23.2344 25.0089V20.3058H38H52.7656V25.0089ZM36.3594 38.8777V50.012L35.9766 50.1542C35.2656 50.4058 34.2812 51.1714 33.625 51.9698C32.7281 53.0745 31.9406 53.4027 30.8906 53.1183C30.4859 53.0089 30.2125 52.8011 29.3047 51.8605C28.0797 50.5917 27.4125 50.1652 26.2422 49.8808C24.8203 49.5527 23.3328 49.8042 22.0312 50.5917L21.3203 51.0183L21.2437 50.723C21.2 50.5698 20.2266 47.1902 19.0891 43.2308C17.9406 39.2605 17.0219 36.0011 17.0328 36.0011C17.1312 35.9355 36.2172 27.7652 36.2828 27.7542C36.3266 27.7433 36.3594 32.7527 36.3594 38.8777ZM49.4297 31.9105C54.6688 34.1527 58.9562 35.9902 58.9672 36.0011C58.9891 36.012 54.7344 50.8542 54.6906 50.898C54.6797 50.9089 54.45 50.7777 54.1766 50.5917C53.0062 49.837 51.2562 49.5417 49.9547 49.8808C48.5766 50.2308 47.625 50.8542 46.6953 52.0245C45.8641 53.0636 45.0547 53.3917 44.0156 53.1183C43.6109 53.0089 43.3266 52.7792 42.375 51.8058C41.2922 50.7011 40.7453 50.3183 39.8375 50.012C39.6516 49.9573 39.6406 49.323 39.6406 38.8339C39.6406 29.9855 39.6734 27.7323 39.7828 27.7761C39.8484 27.8089 44.2016 29.6683 49.4297 31.9105Z" fill="#3E72F9"/>
<path d="M30.65 33.6605C30.1797 33.9011 29.7969 34.5464 29.7969 35.0714C29.7969 35.6183 30.1797 36.2417 30.6719 36.4933C30.9016 36.6136 31.2516 36.712 31.4375 36.712C32.2687 36.712 33.0781 35.9027 33.0781 35.0714C33.0781 34.5245 32.6953 33.9011 32.2031 33.6495C31.6672 33.3761 31.175 33.3761 30.65 33.6605Z" fill="#3E72F9"/>
<path d="M43.775 33.6605C43.3047 33.9011 42.9219 34.5464 42.9219 35.0714C42.9219 35.2573 43.0203 35.6073 43.1406 35.837C43.3922 36.3292 44.0156 36.712 44.5625 36.712C45.3937 36.712 46.2031 35.9027 46.2031 35.0714C46.2031 34.5245 45.8203 33.9011 45.3281 33.6495C44.7922 33.3761 44.3 33.3761 43.775 33.6605Z" fill="#3E72F9"/>
<circle cx="12" cy="25" r="12" fill="#FF0000"/>
<circle cx="12" cy="25" r="11.5" stroke="white" stroke-opacity="0.3"/>
<path d="M17.3684 21.168C17.294 21.0931 17.2055 21.0335 17.108 20.9929C17.0105 20.9523 16.906 20.9314 16.8004 20.9314C16.6947 20.9314 16.5902 20.9523 16.4927 20.9929C16.3952 21.0335 16.3067 21.0931 16.2324 21.168L10.2724 27.136L7.76835 24.624C7.69113 24.5494 7.59998 24.4908 7.5001 24.4514C7.40021 24.4121 7.29355 24.3928 7.18621 24.3946C7.07886 24.3965 6.97294 24.4195 6.87447 24.4623C6.77601 24.505 6.68694 24.5668 6.61235 24.644C6.53776 24.7213 6.47911 24.8124 6.43975 24.9123C6.40038 25.0122 6.38108 25.1188 6.38293 25.2262C6.38479 25.3335 6.40777 25.4394 6.45057 25.5379C6.49336 25.6364 6.55513 25.7254 6.63235 25.8L9.70435 28.872C9.77872 28.947 9.8672 29.0065 9.96469 29.0471C10.0622 29.0878 10.1667 29.1087 10.2724 29.1087C10.378 29.1087 10.4825 29.0878 10.58 29.0471C10.6775 29.0065 10.766 28.947 10.8404 28.872L17.3684 22.344C17.4496 22.2691 17.5144 22.1782 17.5587 22.077C17.603 21.9758 17.6259 21.8665 17.6259 21.756C17.6259 21.6456 17.603 21.5363 17.5587 21.4351C17.5144 21.3339 17.4496 21.2429 17.3684 21.168Z" fill="white"/>
</g>
<defs>
<clipPath id="clip0_363_2294">
<rect width="66" height="56" fill="white"/>
</clipPath>
</defs>
</svg>
