<svg width="66" height="56" viewBox="0 0 66 56" fill="none" xmlns="http://www.w3.org/2000/svg">
<g clip-path="url(#clip0_253_3088)">
<path d="M38.9844 0.4375C39.4043 0.603589 39.6051 0.850722 39.8799 1.20312C40.2084 1.61607 40.5422 2.01694 40.8984 2.40625C41.2391 2.78003 41.5647 3.16151 41.8828 3.55469C42.21 3.95905 42.5454 4.35175 42.8945 4.7373C42.9749 4.82627 43.0553 4.91524 43.1381 5.0069C43.2731 5.1552 43.409 5.30268 43.5465 5.44867C43.7012 5.61914 43.7012 5.61914 43.9062 5.90625C43.8764 6.32811 43.6399 6.55056 43.3594 6.84961C43.2257 6.99384 43.2257 6.99384 43.0894 7.14099C42.998 7.23884 42.9066 7.33669 42.8125 7.4375C42.648 7.61943 42.484 7.80171 42.3203 7.98438C41.9922 8.34896 41.6641 8.71354 41.3359 9.07812C41.2557 9.16737 41.1755 9.25662 41.0928 9.34857C40.9192 9.54123 40.7452 9.73345 40.5707 9.92535C40.4826 10.0225 40.3945 10.1196 40.3037 10.2197C40.1838 10.3515 40.1838 10.3515 40.0615 10.4859C39.8448 10.7256 39.8448 10.7256 39.6406 11.0469C39.7659 11.0534 39.7659 11.0534 39.8936 11.06C44.2923 11.2987 48.3487 12.2001 51.8906 14.9844C51.989 15.0587 52.0874 15.133 52.1888 15.2095C55.3164 17.6498 57.4826 20.989 58.5967 24.7803C58.6219 24.8653 58.6471 24.9503 58.6731 25.0378C59.1186 26.6456 59.277 28.2444 59.2598 29.9072C59.2593 29.9955 59.2587 30.0839 59.2582 30.1748C59.2494 31.4787 59.2062 32.7447 58.8906 34.0156C58.8695 34.1044 58.8483 34.1932 58.8265 34.2847C57.9702 37.796 56.2245 40.7098 53.75 43.3125C53.6823 43.3872 53.6146 43.462 53.5449 43.5389C50.601 46.68 45.9608 48.5227 41.7136 48.7714C41.5537 48.7763 41.5537 48.7763 41.3906 48.7812C41.2525 48.7856 41.1143 48.79 40.9719 48.7945C37.0297 48.8758 33.0343 47.7963 29.7969 45.5C29.7124 45.4181 29.6279 45.3362 29.5408 45.2517C28.4763 44.2816 27.4212 44.4004 26.0508 44.4541C25.8302 44.459 25.6096 44.4635 25.389 44.4676C24.8528 44.4783 24.3171 44.4953 23.7812 44.5156C24.9233 45.6934 26.0517 46.8435 27.3906 47.7969C27.4513 47.8411 27.512 47.8853 27.5745 47.9309C32.3706 51.4048 38.3107 52.6793 44.1261 51.7891C48.3541 51.0813 52.2196 49.172 55.368 46.2678C55.5782 46.0754 55.7927 45.8929 56.0127 45.7119C56.4352 45.35 56.7864 44.9436 57.1406 44.5156C57.187 44.4608 57.2334 44.406 57.2812 44.3495C59.0377 42.2689 60.3495 39.9534 61.2969 37.4062C61.344 37.2837 61.3911 37.1612 61.4396 37.035C62.1603 35.0406 62.4801 32.9044 62.5662 30.7933C62.5703 30.7042 62.5744 30.6151 62.5786 30.5233C62.5819 30.443 62.5852 30.3626 62.5887 30.2798C62.6094 30.0781 62.6094 30.0781 62.7188 29.8594C63.8016 29.8594 64.8844 29.8594 66 29.8594C66.1148 36.0984 63.939 42.147 59.7656 46.8125C59.6815 46.9087 59.5973 47.0048 59.5106 47.1039C58.577 48.1601 57.5925 49.1128 56.4844 49.9844C56.3778 50.0709 56.2712 50.1575 56.1614 50.2467C55.1933 51.0178 54.1649 51.663 53.0938 52.2812C53.0182 52.3251 52.9426 52.369 52.8648 52.4142C48.6039 54.8591 43.8693 55.6047 39.0246 55.5873C38.7774 55.5873 38.5303 55.5873 38.2832 55.5874C37.621 55.5875 36.9588 55.5862 36.2966 55.5847C35.6013 55.5833 34.9061 55.5832 34.2108 55.5829C33.0467 55.5823 31.8826 55.581 30.7184 55.579C29.5208 55.577 28.3231 55.5754 27.1255 55.5745C27.0513 55.5745 26.9772 55.5744 26.9008 55.5743C26.5287 55.5741 26.1566 55.5738 25.7845 55.5735C22.7105 55.5713 19.6365 55.5673 16.5625 55.5625C16.5625 54.4436 16.5625 53.3247 16.5625 52.1719C20.1719 52.1358 23.7812 52.0997 27.5 52.0625C26.6338 51.5211 26.6338 51.5211 25.75 50.9688C24.9212 50.3436 24.1302 49.7065 23.3677 49.0034C23.1501 48.8043 22.9274 48.6149 22.7012 48.4258C21.7419 47.5838 20.9268 46.6054 20.1514 45.5957C20.0896 45.5154 20.0278 45.435 19.9642 45.3522C19.5298 44.777 19.5298 44.777 19.4062 44.4062C16.3022 44.4062 13.1981 44.4062 10 44.4062C10 43.2873 10 42.1684 10 41.0156C12.4183 41.0156 14.8366 41.0156 17.3281 41.0156C17.0394 40.3298 16.7506 39.6441 16.4531 38.9375C16.3098 38.5469 16.1726 38.1646 16.0498 37.7686C16.019 37.67 15.9883 37.5715 15.9566 37.4699C15.374 35.5429 15.0749 33.6129 14.9219 31.6094C13.803 31.6094 12.6841 31.6094 11.5312 31.6094C11.529 31.0702 11.5267 30.5311 11.5244 29.9756C11.5234 29.8053 11.5224 29.635 11.5214 29.4595C11.5211 29.3265 11.5209 29.1936 11.5206 29.0566C11.5197 28.8512 11.5197 28.8512 11.5188 28.6418C11.5312 28.3281 11.5312 28.3281 11.6406 28.2188C11.8833 28.2091 12.1262 28.2071 12.3691 28.2081C12.4781 28.2083 12.4781 28.2083 12.5893 28.2085C12.8222 28.2092 13.0552 28.2105 13.2881 28.2119C13.4457 28.2125 13.6033 28.213 13.7608 28.2134C14.1479 28.2146 14.5349 28.2165 14.9219 28.2188C14.9284 28.1469 14.9349 28.0751 14.9416 28.0011C15.3817 23.3222 16.8407 19.07 19.5156 15.2031C19.7322 14.8783 19.7322 14.8783 19.9531 14.5469C16.6686 14.5469 13.3841 14.5469 10 14.5469C10 13.428 10 12.3091 10 11.1562C10.3913 11.1581 10.7826 11.1599 11.1857 11.1618C12.481 11.1672 13.7762 11.1672 15.0715 11.1645C15.8566 11.1629 16.6416 11.1632 17.4266 11.1679C18.1114 11.1719 18.796 11.1725 19.4807 11.1689C19.8429 11.1672 20.2049 11.1676 20.5671 11.1712C22.3332 11.2597 22.3332 11.2597 23.8842 10.5705C24.0367 10.4052 24.1852 10.2361 24.3281 10.0625C24.4806 9.93465 24.6357 9.80973 24.7947 9.68994C24.8662 9.634 24.9378 9.57806 25.0115 9.52043C25.9143 8.82421 26.8329 8.21108 27.8281 7.65625C27.8979 7.61628 27.9677 7.57631 28.0396 7.53513C31.0039 5.84165 34.5704 4.64501 38 4.48438C37.934 4.40387 37.868 4.32336 37.8 4.24042C37.6689 4.08032 37.6689 4.08032 37.5352 3.91699C37.4057 3.75901 37.4057 3.75901 37.2737 3.59784C37.1885 3.49336 37.1034 3.38889 37.0156 3.28125C36.8879 3.13638 36.8879 3.13638 36.7576 2.98859C36.6984 2.9047 36.6391 2.82081 36.5781 2.73438C36.7154 2.3226 36.8878 2.22099 37.2275 1.95508C37.8346 1.47119 38.4125 0.962219 38.9844 0.4375ZM26.4062 12.7969C26.3155 12.8736 26.2247 12.9503 26.1311 13.0293C24.7782 14.212 23.5045 15.4819 22.4688 16.9531C22.4252 17.0137 22.3816 17.0743 22.3367 17.1368C20.5105 19.687 19.2485 22.6268 18.6406 25.7031C18.6229 25.7917 18.6051 25.8802 18.5868 25.9714C18.0864 28.5993 18.1045 31.5057 18.6406 34.125C18.6582 34.2159 18.6758 34.3069 18.694 34.4006C19.092 36.4162 19.7591 39.5091 21.2656 41.0156C21.5572 41.0253 21.846 41.0282 22.1376 41.0263C22.2685 41.0261 22.2685 41.0261 22.402 41.0258C22.6817 41.0252 22.9615 41.0238 23.2412 41.0225C23.4304 41.0219 23.6196 41.0214 23.8088 41.021C24.2736 41.0198 24.7384 41.0179 25.2031 41.0156C25.0582 40.7181 24.9018 40.4331 24.7306 40.15C22.071 35.6989 21.0164 30.5478 22.2816 25.4455C23.6104 20.397 26.7212 16.3041 31.213 13.6556C33.5208 12.3186 36.1273 11.5936 38.7656 11.2656C38.3285 10.8218 37.8765 10.3963 37.4189 9.97363C37.3484 9.90828 37.2778 9.84293 37.2051 9.7756C37.0327 9.61593 36.8601 9.45639 36.6875 9.29688C37.0156 8.85938 37.3438 8.42188 37.6719 7.98438C33.8287 7.77975 29.2352 10.393 26.4062 12.7969ZM31.1094 17.7188C31.0542 17.7624 30.999 17.8061 30.9422 17.851C27.972 20.2133 25.6641 23.7303 25.2031 27.5625C25.2031 27.7791 25.2031 27.9956 25.2031 28.2188C26.5025 28.2188 27.8019 28.2188 29.1406 28.2188C29.1406 29.3377 29.1406 30.4566 29.1406 31.6094C27.8412 31.6094 26.5419 31.6094 25.2031 31.6094C25.2031 35.0903 27.2698 38.4747 29.6012 40.9297C30.0734 41.4013 30.5773 41.8169 31.1094 42.2188C31.2367 42.3158 31.2367 42.3158 31.3666 42.4149C33.413 43.9103 36.1786 45.2812 38.7656 45.2812C38.7656 44.018 38.7656 42.7547 38.7656 41.4531C39.8845 41.4531 41.0034 41.4531 42.1562 41.4531C42.1562 42.7164 42.1562 43.9797 42.1562 45.2812C43.5364 45.1083 43.5364 45.1083 44.8633 44.7822C44.9545 44.7541 45.0456 44.726 45.1396 44.6971C49.0759 43.4305 52.3675 40.5861 54.2729 36.9256C55.1036 35.2481 55.5965 33.4622 55.8281 31.6094C54.4927 31.6094 53.1572 31.6094 51.7812 31.6094C51.7812 30.4905 51.7812 29.3716 51.7812 28.2188C53.0806 28.2188 54.38 28.2188 55.7188 28.2188C55.6356 27.0045 55.6356 27.0045 55.3838 25.8467C55.3483 25.7234 55.3483 25.7234 55.3121 25.5977C54.1503 21.7439 51.4372 18.3584 47.9068 16.4262C46.1548 15.5018 44.1728 14.6562 42.1562 14.6562C42.1562 15.9195 42.1562 17.1828 42.1562 18.4844C41.0373 18.4844 39.9184 18.4844 38.7656 18.4844C38.7656 17.2211 38.7656 15.9578 38.7656 14.6562C36.0978 14.6562 33.1495 16.0789 31.1094 17.7188Z" fill="#4C6BD7"/>
<path d="M48.6259 20.686C48.9167 20.8229 49.1008 21.0173 49.3254 21.2465C49.4178 21.3399 49.5101 21.4333 49.6053 21.5295C49.7007 21.6277 49.7962 21.7259 49.8945 21.8271C49.9917 21.9257 50.0888 22.0244 50.1889 22.126C50.4288 22.3697 50.6678 22.6142 50.9062 22.8593C50.7371 23.2718 50.4854 23.5129 50.1607 23.8138C50.05 23.9172 49.9395 24.0206 49.8289 24.1241C49.7411 24.2057 49.7411 24.2057 49.6516 24.289C49.3397 24.5806 49.0323 24.8768 48.7243 25.1725C48.3335 25.5476 47.9416 25.921 47.5432 26.2881C45.824 27.729 45.824 27.729 45.0415 29.7045C45.063 30.0544 45.1159 30.3886 45.188 30.7314C45.3008 31.5445 44.8222 32.3626 44.3848 33.0107C43.5477 34.0741 42.519 34.7825 41.1719 35C39.5637 35.1238 38.2571 34.7674 37.0233 33.7285C36.5279 33.2692 36.2107 32.7635 35.9219 32.1562C35.888 32.0891 35.8542 32.022 35.8193 31.9528C35.2477 30.6667 35.4936 29.2848 35.9219 28C35.0195 27.0976 34.1172 26.1953 33.1875 25.2656C33.3934 24.8537 33.5607 24.648 33.8822 24.3308C34.0218 24.1923 34.0218 24.1923 34.1642 24.0509C34.2615 23.9555 34.3588 23.86 34.459 23.7617C34.5571 23.6645 34.6552 23.5674 34.7563 23.4673C34.9985 23.2277 35.2412 22.9886 35.4844 22.75C36.1605 23.3083 36.7748 23.9184 37.3916 24.541C37.5429 24.693 37.5429 24.693 37.6973 24.8482C37.9443 25.0964 38.191 25.345 38.4375 25.5937C38.5478 25.5595 38.658 25.5252 38.7716 25.4899C40.0626 25.1232 41.4522 25.1799 42.6553 25.792C42.7433 25.8348 42.8312 25.8777 42.9219 25.9218C43.3229 25.7827 43.5717 25.5141 43.864 25.2147C43.9632 25.1136 44.0625 25.0125 44.1648 24.9084C44.2174 24.8544 44.2699 24.8005 44.324 24.7449C44.4889 24.5756 44.6547 24.4072 44.8207 24.239C45.2924 23.761 45.763 23.2819 46.2321 22.8012C46.5193 22.5069 46.8079 22.2139 47.0974 21.9217C47.2074 21.8101 47.317 21.698 47.426 21.5854C47.5781 21.4283 47.732 21.273 47.886 21.1178C48.0167 20.9844 48.0167 20.9844 48.15 20.8482C48.3906 20.6718 48.3906 20.6718 48.6259 20.686ZM39.3125 29.0937C39.0077 29.4674 38.8942 29.8158 38.875 30.2968C39.0514 30.8651 39.2554 31.1702 39.75 31.5C40.0911 31.6705 40.3565 31.6403 40.7344 31.6093C41.1792 31.4501 41.4433 31.2542 41.7119 30.8642C41.8479 30.4563 41.8816 30.1775 41.8281 29.75C41.6027 29.3312 41.3751 28.9947 40.9531 28.7656C40.2907 28.5745 39.858 28.7046 39.3125 29.0937Z" fill="#4C6BD7"/>
<path d="M49.2656 6.45312C51.7978 6.72907 54.4684 8.82313 56.375 10.3906C56.4432 10.4463 56.5114 10.502 56.5816 10.5594C57.9244 11.6628 59.1315 12.8478 60.2031 14.2188C60.2869 14.3213 60.3706 14.4238 60.4569 14.5294C62.2076 16.7163 63.5102 19.212 64.4414 21.8477C64.4985 22.0089 64.4985 22.0089 64.5567 22.1734C64.8109 22.9266 64.8109 22.9266 64.6875 23.2969C64.394 23.4144 64.394 23.4144 64.0069 23.5203C63.8691 23.5587 63.7313 23.5972 63.5893 23.6367C63.4427 23.6762 63.296 23.7155 63.1494 23.7549C63.0023 23.7954 62.8553 23.8361 62.7083 23.8769C62.3475 23.9764 61.9864 24.0747 61.625 24.1719C61.4344 23.8859 61.339 23.6817 61.2319 23.3622C60.2273 20.4395 58.7853 17.8297 56.7031 15.5312C56.607 15.4209 56.511 15.3104 56.4152 15.1997C54.2134 12.688 51.2698 10.8303 48.1719 9.625C48.4729 8.54498 48.872 7.502 49.2656 6.45312Z" fill="#4C6BD7"/>
<circle cx="12" cy="26" r="12" fill="#FF0000"/>
<circle cx="12" cy="26" r="11.5" stroke="white" stroke-opacity="0.3"/>
<path d="M17.3679 22.1678C17.2935 22.0928 17.205 22.0333 17.1075 21.9927C17.01 21.9521 16.9055 21.9312 16.7999 21.9312C16.6943 21.9312 16.5897 21.9521 16.4922 21.9927C16.3947 22.0333 16.3062 22.0928 16.2319 22.1678L10.2719 28.1358L7.76786 25.6238C7.69065 25.5492 7.59949 25.4905 7.49961 25.4512C7.39972 25.4118 7.29306 25.3925 7.18572 25.3944C7.07838 25.3962 6.97245 25.4192 6.87399 25.462C6.77552 25.5048 6.68645 25.5666 6.61186 25.6438C6.53727 25.721 6.47862 25.8122 6.43926 25.912C6.39989 26.0119 6.38059 26.1186 6.38245 26.2259C6.3843 26.3333 6.40729 26.4392 6.45008 26.5377C6.49288 26.6361 6.55464 26.7252 6.63186 26.7998L9.70386 29.8718C9.77823 29.9468 9.86671 30.0063 9.9642 30.0469C10.0617 30.0875 10.1663 30.1084 10.2719 30.1084C10.3775 30.1084 10.482 30.0875 10.5795 30.0469C10.677 30.0063 10.7655 29.9468 10.8399 29.8718L17.3679 23.3438C17.4491 23.2689 17.5139 23.178 17.5582 23.0768C17.6025 22.9756 17.6254 22.8663 17.6254 22.7558C17.6254 22.6453 17.6025 22.536 17.5582 22.4348C17.5139 22.3336 17.4491 22.2427 17.3679 22.1678Z" fill="white"/>
</g>
<defs>
<clipPath id="clip0_253_3088">
<rect width="66" height="56" fill="white"/>
</clipPath>
</defs>
</svg>
