<svg width="66" height="56" viewBox="0 0 66 56" fill="none" xmlns="http://www.w3.org/2000/svg">
<g clip-path="url(#clip0_252_3043)">
<path d="M14.9219 0C30.1534 0 45.385 0 61.0781 0C61.0781 1.08281 61.0781 2.16563 61.0781 3.28125C54.0037 3.28125 46.9294 3.28125 39.6406 3.28125C39.6767 5.84391 39.7128 8.40656 39.75 11.0469C40.2914 11.3176 40.2914 11.3176 40.8438 11.5938C41.8204 12.3017 42.4568 13.1153 42.8193 14.2598C43.1244 15.0952 43.6783 15.5291 44.3669 16.0416C44.6219 16.2319 44.8708 16.4294 45.1201 16.6271C45.3102 16.7774 45.5013 16.9264 45.6926 17.0753C46.1227 17.4116 46.5459 17.7562 46.9688 18.1016C47.5728 18.5945 48.1817 19.0802 48.7963 19.5599C49.2882 19.9449 49.7731 20.3381 50.2568 20.7334C50.7774 21.1586 51.3015 21.5768 51.8359 21.9844C52.6686 22.6249 53.4816 23.2907 54.2969 23.9531C58.1589 23.9892 62.0209 24.0253 66 24.0625C66 34.6019 66 45.1413 66 56C47.52 56 29.04 56 10 56C10 45.4606 10 34.9212 10 24.0625C13.862 24.0264 17.7241 23.9903 21.7031 23.9531C22.1723 23.5561 22.6416 23.1591 23.125 22.75C23.8552 22.1861 23.8552 22.1861 24.17 21.9472C24.592 21.6241 25.0035 21.2885 25.415 20.9521C25.96 20.5068 26.5077 20.0659 27.0625 19.6328C27.6147 19.2017 28.1604 18.7633 28.7031 18.3203C29.1846 17.9274 29.6672 17.5366 30.1569 17.154C30.2811 17.0568 30.4051 16.9592 30.5287 16.8612C30.8726 16.5889 31.2204 16.3242 31.5746 16.0653C32.4319 15.425 32.993 14.9541 33.3054 13.8915C33.6688 12.7059 34.643 11.8843 35.6775 11.2836C35.9219 11.1562 35.9219 11.1562 36.25 11.0469C36.2861 8.48422 36.3222 5.92156 36.3594 3.28125C29.285 3.28125 22.2106 3.28125 14.9219 3.28125C14.9219 2.19844 14.9219 1.11563 14.9219 0ZM36.5371 14.9434C36.296 15.444 36.2722 15.86 36.3594 16.4062C36.6156 16.9383 36.9333 17.2248 37.4531 17.5C37.9308 17.6415 38.231 17.6351 38.6768 17.4316C39.127 17.1803 39.4094 16.8687 39.6406 16.4062C39.6997 15.8676 39.7002 15.4362 39.4629 14.9434C39.1082 14.5514 38.8242 14.263 38.2845 14.1769C37.4907 14.1411 37.0737 14.3503 36.5371 14.9434ZM33.7344 18.7031C33.6878 18.7421 33.6412 18.781 33.5932 18.8211C32.7234 19.5466 31.8492 20.2626 30.9453 20.9453C30.2133 21.4984 29.5015 22.0719 28.7961 22.6584C28.3129 23.06 27.8244 23.4516 27.3218 23.8288C27.2724 23.8698 27.2229 23.9109 27.1719 23.9531C27.1719 23.9892 27.1719 24.0253 27.1719 24.0625C34.3184 24.0625 41.465 24.0625 48.8281 24.0625C48.369 23.6022 48.369 23.6022 47.8865 23.1772C47.8139 23.1173 47.7414 23.0573 47.6667 22.9955C47.5897 22.9325 47.5128 22.8695 47.4336 22.8047C47.3522 22.7378 47.2707 22.6709 47.1869 22.602C46.5562 22.087 45.9128 21.5909 45.263 21.1005C44.5986 20.5966 43.9554 20.0693 43.3177 19.5322C42.9453 19.2206 42.5845 18.9371 42.1562 18.7031C42.0547 18.8689 42.0547 18.8689 41.9512 19.0381C41.264 19.9971 40.0864 20.567 38.957 20.8154C37.4845 21.0437 36.1398 20.7088 34.9302 19.8528C34.6528 19.636 34.4103 19.3995 34.1719 19.1406C34.0264 18.9944 33.8807 18.8485 33.7344 18.7031ZM13.3906 27.4531C13.3906 35.7908 13.3906 44.1284 13.3906 52.7188C29.6328 52.7188 45.875 52.7188 62.6094 52.7188C62.6094 44.3811 62.6094 36.0434 62.6094 27.4531C46.3672 27.4531 30.125 27.4531 13.3906 27.4531Z" fill="#4C6BD7"/>
<path d="M55.6094 31.9375C56.7283 31.9375 57.8472 31.9375 59 31.9375C59 37.2794 59 42.6213 59 48.125C57.8811 48.125 56.7622 48.125 55.6094 48.125C55.6094 42.7831 55.6094 37.4412 55.6094 31.9375Z" fill="#4C6BD7"/>
<path d="M49.1562 31.9375C50.2752 31.9375 51.3941 31.9375 52.5469 31.9375C52.5469 37.2794 52.5469 42.6213 52.5469 48.125C51.428 48.125 50.3091 48.125 49.1562 48.125C49.1562 42.7831 49.1562 37.4412 49.1562 31.9375Z" fill="#4C6BD7"/>
<path d="M42.7031 31.9375C43.822 31.9375 44.9409 31.9375 46.0938 31.9375C46.0938 37.2794 46.0938 42.6213 46.0938 48.125C44.9748 48.125 43.8559 48.125 42.7031 48.125C42.7031 42.7831 42.7031 37.4412 42.7031 31.9375Z" fill="#4C6BD7"/>
<path d="M29.9062 31.9375C31.0252 31.9375 32.1441 31.9375 33.2969 31.9375C33.2969 37.2794 33.2969 42.6213 33.2969 48.125C32.178 48.125 31.0591 48.125 29.9062 48.125C29.9062 42.7831 29.9062 37.4412 29.9062 31.9375Z" fill="#4C6BD7"/>
<path d="M23.4531 31.9375C24.572 31.9375 25.6909 31.9375 26.8438 31.9375C26.8438 37.2794 26.8438 42.6213 26.8438 48.125C25.7248 48.125 24.6059 48.125 23.4531 48.125C23.4531 42.7831 23.4531 37.4412 23.4531 31.9375Z" fill="#4C6BD7"/>
<path d="M17 31.9375C18.1189 31.9375 19.2378 31.9375 20.3906 31.9375C20.3906 37.2794 20.3906 42.6213 20.3906 48.125C19.2717 48.125 18.1528 48.125 17 48.125C17 42.7831 17 37.4412 17 31.9375Z" fill="#4C6BD7"/>
<path d="M36.3594 31.9375C37.4422 31.9375 38.525 31.9375 39.6406 31.9375C39.6406 37.2794 39.6406 42.6213 39.6406 48.125C38.5578 48.125 37.475 48.125 36.3594 48.125C36.3594 42.7831 36.3594 37.4412 36.3594 31.9375Z" fill="#4C6BD7"/>
<circle cx="12" cy="26" r="12" fill="#FF0000"/>
<circle cx="12" cy="26" r="11.5" stroke="white" stroke-opacity="0.3"/>
<path d="M17.3679 22.1678C17.2935 22.0928 17.205 22.0333 17.1075 21.9927C17.01 21.9521 16.9055 21.9312 16.7999 21.9312C16.6943 21.9312 16.5897 21.9521 16.4922 21.9927C16.3947 22.0333 16.3062 22.0928 16.2319 22.1678L10.2719 28.1358L7.76786 25.6238C7.69065 25.5492 7.59949 25.4905 7.49961 25.4512C7.39972 25.4118 7.29306 25.3925 7.18572 25.3944C7.07838 25.3962 6.97245 25.4192 6.87399 25.462C6.77552 25.5048 6.68645 25.5666 6.61186 25.6438C6.53727 25.721 6.47862 25.8122 6.43926 25.912C6.39989 26.0119 6.38059 26.1186 6.38245 26.2259C6.3843 26.3333 6.40729 26.4392 6.45008 26.5377C6.49288 26.6361 6.55464 26.7252 6.63186 26.7998L9.70386 29.8718C9.77823 29.9468 9.86671 30.0063 9.9642 30.0469C10.0617 30.0875 10.1663 30.1084 10.2719 30.1084C10.3775 30.1084 10.482 30.0875 10.5795 30.0469C10.677 30.0063 10.7655 29.9468 10.8399 29.8718L17.3679 23.3438C17.4491 23.2689 17.5139 23.178 17.5582 23.0768C17.6025 22.9756 17.6254 22.8663 17.6254 22.7558C17.6254 22.6453 17.6025 22.536 17.5582 22.4348C17.5139 22.3336 17.4491 22.2427 17.3679 22.1678Z" fill="white"/>
</g>
<defs>
<clipPath id="clip0_252_3043">
<rect width="66" height="56" fill="white"/>
</clipPath>
</defs>
</svg>
