<svg width="66" height="56" viewBox="0 0 66 56" fill="none" xmlns="http://www.w3.org/2000/svg">
<g clip-path="url(#clip0_363_2269)">
<path d="M36.8223 0.619593C34.6566 1.10084 32.9723 2.58834 32.2613 4.64459C32.0645 5.22428 32.0098 5.61803 32.0098 6.52584C32.0098 7.7399 32.1738 8.42897 32.666 9.32584L32.9066 9.77428L32.4035 10.0368C31.6379 10.4415 30.4238 11.7102 30.0191 12.5415C29.6035 13.3946 28.4551 17.868 28.4551 18.6446C28.4551 19.7274 29.3629 20.8977 30.4238 21.1821C30.7082 21.2587 33.3004 21.2915 38.2113 21.2696C45.5176 21.2368 45.5723 21.2368 46.0098 20.9962C46.8957 20.5258 47.4754 19.5852 47.4863 18.6337C47.4863 17.879 46.3379 13.3946 45.9332 12.5633C45.4957 11.6774 44.5223 10.6165 43.691 10.1352L43.0457 9.76334L43.2863 9.31491C43.7676 8.42897 43.9316 7.72897 43.9316 6.52584C43.9316 5.61803 43.877 5.22428 43.6801 4.64459C43.0566 2.85084 41.6785 1.46178 39.8738 0.827404C39.141 0.575842 37.5223 0.466467 36.8223 0.619593ZM38.9004 3.97741C39.9066 4.31647 40.7051 5.44303 40.7051 6.52584C40.7051 7.96959 39.4145 9.26022 37.9707 9.26022C37.3145 9.26022 36.5488 8.93209 36.0566 8.43991C34.9848 7.36803 34.9848 5.68365 36.0566 4.61178C36.8113 3.84616 37.8504 3.61647 38.9004 3.97741ZM41.4488 12.6946C42.6301 13.1102 42.9801 13.6899 43.6035 16.1618L44.0738 18.0102H37.9707H31.8676L32.3379 16.1618C32.9504 13.7118 33.3113 13.1212 34.4488 12.7055C35.0504 12.4868 40.8254 12.4758 41.4488 12.6946Z" fill="#3E72F9"/>
<path d="M21.8385 14.8822C21.2151 15.1665 19.5526 17.0697 18.3713 18.8744C16.2385 22.1119 14.9588 25.6994 14.5651 29.5931C14.3245 32.0212 14.4667 32.7103 15.3088 33.1915C15.8448 33.4869 16.3042 33.4978 16.862 33.2134C17.4526 32.9181 17.737 32.3384 17.737 31.4634C17.737 31.1025 17.7917 30.3259 17.8573 29.7353C18.3276 25.415 20.0667 21.5431 23.0307 18.1962C23.7635 17.3759 24.0807 16.9275 24.1026 16.7197C24.1354 16.0962 24.0479 15.7572 23.7854 15.3962C23.3151 14.7837 22.5276 14.5759 21.8385 14.8822Z" fill="#3E72F9"/>
<path d="M52.7911 14.8822C52.0692 15.1994 51.6864 15.9759 51.8614 16.7525C51.9161 17.0041 52.2333 17.4525 52.7583 18.0431C54.3223 19.7822 55.1755 21.029 56.127 22.9212C57.3739 25.415 58.2051 28.8384 58.2051 31.4634C58.2051 32.3165 58.4786 32.8634 59.0583 33.1915C59.5942 33.4869 60.0536 33.4978 60.6114 33.2134C61.4645 32.7759 61.6176 32.0322 61.377 29.5931C60.852 24.3978 58.6426 19.5306 55.1098 15.7462C54.1911 14.7619 53.5786 14.5322 52.7911 14.8822Z" fill="#3E72F9"/>
<path d="M43.0129 28.2915C42.7176 28.3571 41.8754 29.1446 39.0535 31.9665L35.4551 35.565L34.4488 34.5587C33.2894 33.4321 33.1254 33.3228 32.5019 33.3228C31.6926 33.3228 31.0473 33.8478 30.9051 34.6025C30.7629 35.3681 30.9707 35.6743 32.8629 37.5665C34.3066 39.0103 34.7332 39.3712 35.0613 39.4478C35.9473 39.6446 35.9582 39.6337 40.5738 35.04C45.1566 30.4681 45.2004 30.4134 45.0254 29.5384C44.9379 29.0571 44.2488 28.2915 43.8988 28.2915C43.7785 28.2915 43.6144 28.2696 43.5269 28.2478C43.4504 28.2259 43.2207 28.2478 43.0129 28.2915Z" fill="#3E72F9"/>
<path d="M17.9772 35.9477C16.9162 36.2321 16.085 36.7133 15.2537 37.5446C13.4928 39.2837 13.0116 42.0071 14.0506 44.2055L14.4225 44.9821L13.8647 45.2993C13.0116 45.7696 12.0272 46.8415 11.5678 47.7821C11.0428 48.8649 9.92719 53.2727 10.0037 54.0165C10.1022 55.0883 10.9444 56.1383 11.9397 56.4008C12.2241 56.4774 14.8162 56.5102 19.7272 56.4883C27.0662 56.4555 27.0881 56.4555 27.5366 56.2149C28.0616 55.9415 28.6412 55.3071 28.8491 54.804C28.9366 54.5962 29.0022 54.1587 29.0022 53.8087C29.0022 52.9555 27.9084 48.6899 27.46 47.7821C27.0444 46.929 26.1147 45.9118 25.2725 45.3868C24.9116 45.168 24.6272 44.9712 24.6272 44.9493C24.6272 44.9274 24.7475 44.6758 24.8897 44.3805C25.7209 42.7618 25.6991 40.6946 24.835 38.9774C24.3209 37.9821 23.1178 36.8118 22.0897 36.3415C20.7116 35.6962 19.3991 35.5758 17.9772 35.9477ZM20.6569 39.2618C22.035 39.9837 22.5928 41.5368 21.9584 42.893C21.5428 43.8008 20.7444 44.3587 19.7162 44.4462C18.6881 44.5446 17.6491 43.9758 17.1241 43.0243C16.3366 41.5915 17.0256 39.7649 18.5897 39.1743C19.0928 38.9774 20.1866 39.0212 20.6569 39.2618ZM23.4897 48.143C24.3537 48.679 24.5834 49.1165 25.1194 51.2712C25.3928 52.3212 25.6116 53.1852 25.6116 53.1962C25.6116 53.218 22.8772 53.229 19.5412 53.229C15.3959 53.229 13.4709 53.1962 13.4709 53.1196C13.4709 52.8571 14.3678 49.4555 14.51 49.193C14.7287 48.7665 15.3303 48.2415 15.8772 47.979C16.3475 47.7712 16.5334 47.7602 19.6616 47.7821L22.9537 47.8149L23.4897 48.143Z" fill="#3E72F9"/>
<path d="M55.1973 35.8603C53.0973 36.254 51.1066 38.2009 50.6035 40.3446C50.2863 41.6899 50.4504 43.2103 51.052 44.3806C51.1941 44.6759 51.3145 44.9274 51.3145 44.9493C51.3145 44.9712 51.0301 45.1681 50.6691 45.3868C49.827 45.9118 48.8973 46.929 48.4816 47.7821C48.0332 48.6899 46.9395 52.9556 46.9395 53.8087C46.9395 54.1587 47.0051 54.5962 47.0926 54.804C47.3004 55.3071 47.8801 55.9415 48.4051 56.2149C48.8535 56.4556 48.8754 56.4556 56.2254 56.4884C64.5707 56.5212 64.2973 56.5431 65.1504 55.6899C65.6316 55.2087 65.9707 54.4431 65.9707 53.8087C65.9707 53.0978 64.7785 48.6243 64.3738 47.7821C63.9145 46.8415 62.9301 45.7696 62.077 45.2993L61.5191 44.9821L61.8801 44.2165C63.1816 41.4712 62.066 38.0368 59.3973 36.5165C58.216 35.8493 56.5973 35.5978 55.1973 35.8603ZM57.2316 39.1415C58.8832 39.6993 59.6379 41.5478 58.8066 43.0353C58.2707 44.0087 57.2535 44.5556 56.1816 44.4462C54.2566 44.2493 53.152 42.2478 54.027 40.5415C54.6395 39.3274 56.0176 38.7259 57.2316 39.1415ZM60.0645 47.9899C60.6113 48.2306 61.2129 48.7556 61.4316 49.1931C61.5738 49.4556 62.4707 52.8571 62.4707 53.1196C62.4707 53.1962 60.5457 53.229 56.3895 53.229C50.6582 53.229 50.3191 53.2181 50.3738 53.0321C50.4066 52.9337 50.6145 52.1024 50.8332 51.2056C51.2707 49.4228 51.5551 48.7993 52.1348 48.3509C52.8566 47.804 53.0973 47.7712 56.4551 47.7712C59.3535 47.7603 59.6051 47.7821 60.0645 47.9899Z" fill="#3E72F9"/>
<path d="M33.1145 51.6977C32.0864 52.0149 31.6379 53.4149 32.2942 54.2571C32.6551 54.7165 33.0707 54.8696 34.6129 55.0884C37.0082 55.4493 40.9348 55.3399 42.6629 54.8696C43.9317 54.5305 44.3801 53.1524 43.5379 52.1899C43.0676 51.654 42.5864 51.5446 41.5692 51.7634C41.0661 51.8727 39.9067 51.9493 38.5176 51.993C36.352 52.0477 35.9582 52.0149 33.7598 51.654C33.5848 51.6212 33.2895 51.643 33.1145 51.6977Z" fill="#3E72F9"/>
<circle cx="12" cy="25" r="12" fill="#FF0000"/>
<circle cx="12" cy="25" r="11.5" stroke="white" stroke-opacity="0.3"/>
<path d="M17.3684 21.168C17.294 21.0931 17.2055 21.0335 17.108 20.9929C17.0105 20.9523 16.906 20.9314 16.8004 20.9314C16.6947 20.9314 16.5902 20.9523 16.4927 20.9929C16.3952 21.0335 16.3067 21.0931 16.2324 21.168L10.2724 27.136L7.76835 24.624C7.69113 24.5494 7.59998 24.4908 7.5001 24.4514C7.40021 24.4121 7.29355 24.3928 7.18621 24.3946C7.07886 24.3965 6.97294 24.4195 6.87447 24.4623C6.77601 24.505 6.68694 24.5668 6.61235 24.644C6.53776 24.7213 6.47911 24.8124 6.43975 24.9123C6.40038 25.0122 6.38108 25.1188 6.38293 25.2262C6.38479 25.3335 6.40777 25.4394 6.45057 25.5379C6.49336 25.6364 6.55513 25.7254 6.63235 25.8L9.70435 28.872C9.77872 28.947 9.8672 29.0065 9.96469 29.0471C10.0622 29.0878 10.1667 29.1087 10.2724 29.1087C10.378 29.1087 10.4825 29.0878 10.58 29.0471C10.6775 29.0065 10.766 28.947 10.8404 28.872L17.3684 22.344C17.4496 22.2691 17.5144 22.1782 17.5587 22.077C17.603 21.9758 17.6259 21.8665 17.6259 21.756C17.6259 21.6456 17.603 21.5363 17.5587 21.4351C17.5144 21.3339 17.4496 21.2429 17.3684 21.168Z" fill="white"/>
</g>
<defs>
<clipPath id="clip0_363_2269">
<rect width="66" height="56" fill="white"/>
</clipPath>
</defs>
</svg>
