<svg width="66" height="56" viewBox="0 0 66 56" fill="none" xmlns="http://www.w3.org/2000/svg">
<g clip-path="url(#clip0_363_2283)">
<path d="M37.2719 0.683418C36.8453 0.902168 36.7578 1.01154 35.4453 3.17717C34.8219 4.18342 34.2203 5.05842 34.1 5.11311C33.9797 5.15686 32.9078 5.43029 31.7047 5.71467C29.7031 6.18498 29.5063 6.25061 29.1672 6.58967C28.7734 6.99436 28.6203 7.50842 28.7297 8.09904C28.7844 8.36154 29.2656 9.00686 30.3813 10.3303L31.9672 12.2006L31.7922 14.2022C31.6938 15.3069 31.6391 16.499 31.6609 16.849C31.7047 17.4397 31.7484 17.5272 32.1641 17.91C32.8641 18.5772 33.2031 18.5334 35.8281 17.4506L37.9828 16.5537L40.1484 17.4506C42.7625 18.5334 43.1016 18.5772 43.8016 17.9209C44.1953 17.549 44.2609 17.4287 44.2938 16.9037C44.3266 16.5756 44.2719 15.3834 44.1734 14.2569L43.9984 12.2006L45.5844 10.3303C46.7 9.00686 47.1813 8.36154 47.2359 8.09904C47.3453 7.50842 47.1922 6.99436 46.7984 6.58967C46.4594 6.25061 46.2625 6.18498 44.2609 5.71467C43.0578 5.43029 41.9859 5.15686 41.8656 5.11311C41.7453 5.05842 41.1438 4.18342 40.5203 3.17717C39.175 0.967793 39.2188 1.03342 38.7484 0.738106C38.3 0.464668 37.7313 0.442793 37.2719 0.683418ZM38.6391 6.38186C39.5906 7.95685 39.6563 8.00061 41.3188 8.38342C41.9203 8.51467 42.4563 8.65686 42.5 8.71154C42.5438 8.75529 42.2156 9.22561 41.7563 9.76154C41.2859 10.2975 40.8703 10.8553 40.8047 11.0084C40.7391 11.1725 40.7281 11.8397 40.7719 12.7365L40.8484 14.1912L40.4219 14.0162C39.0219 13.4147 38.3656 13.1959 37.9828 13.1959C37.6 13.1959 36.9438 13.4147 35.5438 14.0162L35.1172 14.1912L35.1938 12.7365C35.2375 11.8397 35.2266 11.1725 35.1609 11.0084C35.0953 10.8553 34.6797 10.2975 34.2094 9.76154C33.75 9.22561 33.4219 8.75529 33.4656 8.71154C33.5094 8.65686 34.0453 8.51467 34.6469 8.38342C36.3094 8.00061 36.375 7.95685 37.3266 6.38186C37.6438 5.85686 37.9391 5.43029 37.9828 5.43029C38.0266 5.43029 38.3219 5.85686 38.6391 6.38186Z" fill="#3E72F9"/>
<path d="M18.7876 7.61772C18.2954 7.77085 18.011 8.13178 16.7641 10.188C16.1407 11.2052 15.6157 12.0693 15.6048 12.0912C15.5829 12.113 14.5438 12.3646 13.297 12.6708C12.0501 12.9662 10.9016 13.2943 10.7595 13.4037C10.0595 13.9068 9.79695 14.8037 10.1688 15.4599C10.2782 15.6568 11.022 16.5755 11.8204 17.5162L13.286 19.2115L13.0891 21.4974C12.9907 22.7443 12.936 23.9474 12.9798 24.1552C13.111 24.8771 14.0407 25.5333 14.7407 25.4021C14.9266 25.3583 16.0313 24.9427 17.1907 24.4615L19.2907 23.5865L21.4126 24.4615C22.572 24.9427 23.6766 25.3693 23.8516 25.4021C24.322 25.5005 25.1313 25.1068 25.4048 24.6583C25.6673 24.2208 25.6782 23.4662 25.4704 20.9615C25.361 19.6927 25.3501 19.2224 25.4485 19.1021C25.5141 19.0146 26.1266 18.2818 26.8048 17.4943C27.4829 16.6958 28.161 15.8646 28.3032 15.6458C28.8173 14.8912 28.5657 13.7537 27.8001 13.349C27.6251 13.2615 26.4876 12.9552 25.2626 12.6599L23.0532 12.1349L22.211 10.7787C20.6688 8.28491 20.461 7.97866 20.1657 7.80366C19.7829 7.57397 19.1923 7.49741 18.7876 7.61772ZM19.947 13.3818C20.8876 14.9568 20.9204 14.9896 22.747 15.438L23.972 15.7333L23.0532 16.8162C22.4298 17.549 22.1126 18.0193 22.0579 18.2708C22.0251 18.4787 22.036 19.2224 22.0907 19.9115C22.1345 20.6115 22.1563 21.1802 22.1126 21.1802C22.0798 21.1802 21.522 20.9615 20.8766 20.688C20.2204 20.4146 19.5313 20.1958 19.3126 20.1958C19.1048 20.1958 18.3938 20.4146 17.7376 20.688C17.0704 20.9615 16.5126 21.1802 16.4798 21.1802C16.4579 21.1802 16.4579 20.6005 16.5016 19.8896C16.5454 19.1677 16.5454 18.424 16.5016 18.2162C16.4579 17.9646 16.1407 17.4943 15.561 16.8162C15.0688 16.2583 14.697 15.7662 14.7298 15.7443C14.7516 15.7115 15.3423 15.5583 16.0313 15.3833C16.7204 15.2193 17.4204 14.9896 17.5735 14.8912C17.7376 14.7818 18.1641 14.1912 18.547 13.5677C18.9188 12.9443 19.2579 12.4302 19.3016 12.4302C19.3454 12.4302 19.6298 12.8568 19.947 13.3818Z" fill="#3E72F9"/>
<path d="M56.1724 7.62872C55.6693 7.7709 55.3958 8.1209 54.0943 10.2318L52.913 12.135L50.7037 12.66C49.4787 12.9553 48.3412 13.2615 48.1662 13.349C47.4552 13.7209 47.1599 14.8475 47.5865 15.5475C47.7068 15.7225 48.4396 16.6412 49.238 17.5709C50.5177 19.0803 50.6708 19.2881 50.6162 19.5943C50.5396 20.1193 50.3318 23.0178 50.3318 23.6522C50.3318 24.3303 50.5396 24.7897 51.0099 25.1287C51.6443 25.5772 52.1146 25.4897 54.5208 24.4834L56.6755 23.5865L58.7865 24.4615C59.9458 24.9428 61.0724 25.3693 61.2802 25.4022C61.8271 25.4897 62.5599 25.074 62.8552 24.5162C63.074 24.1006 63.074 24.0787 62.8771 21.6506L62.6912 19.2115L64.1458 17.5162C64.9443 16.5756 65.688 15.6568 65.7974 15.46C66.1693 14.8037 65.9068 13.9068 65.2068 13.4037C65.0646 13.2943 63.9162 12.9662 62.6693 12.6709C61.4224 12.3647 60.3833 12.1131 60.3615 12.0912C60.3505 12.0693 59.8255 11.2053 59.2021 10.1881C57.9115 8.05528 57.7037 7.80371 57.1349 7.62872C56.6646 7.48653 56.6537 7.48653 56.1724 7.62872ZM57.4193 13.5678C57.8021 14.1912 58.2287 14.7818 58.3927 14.8912C58.5458 14.9897 59.2458 15.2193 59.9349 15.3834C60.624 15.5584 61.2146 15.7115 61.2365 15.7443C61.2693 15.7662 60.8974 16.2584 60.4052 16.8162C59.8255 17.4943 59.5083 17.9647 59.4646 18.2162C59.4208 18.424 59.4208 19.1678 59.4646 19.8897C59.5083 20.6006 59.5083 21.1803 59.4865 21.1803C59.4537 21.1803 58.8958 20.9615 58.2287 20.6881C57.5724 20.4147 56.8615 20.1959 56.6537 20.1959C56.4349 20.1959 55.7458 20.4147 55.0896 20.6881C54.4443 20.9615 53.8865 21.1803 53.8537 21.1803C53.8099 21.1803 53.8318 20.6115 53.8755 19.9115C53.9302 19.2225 53.9412 18.4787 53.9083 18.2709C53.8537 18.0193 53.5365 17.549 52.913 16.8162L51.9943 15.7334L53.2193 15.4381C55.0458 14.9897 55.0787 14.9568 56.0193 13.3818C56.3365 12.8568 56.6208 12.4303 56.6646 12.4303C56.7083 12.4303 57.0474 12.9443 57.4193 13.5678Z" fill="#3E72F9"/>
<path d="M36.4621 25.2381C33.3777 25.7849 30.7527 28.0599 29.7246 31.0787C29.4293 31.9646 29.3309 32.6537 29.3309 33.8678C29.3309 36.1537 30.1184 38.0678 31.7809 39.8506L32.4152 40.5287L32.0543 40.7146C29.6371 41.9506 27.3074 44.7506 26.3996 47.4849C25.8855 49.0381 25.798 49.8584 25.7871 52.7021C25.7871 55.2615 25.798 55.4146 26.0168 55.699C26.1371 55.8631 26.3777 56.1037 26.5418 56.224C26.8371 56.4537 26.9246 56.4537 37.8293 56.4865C50.0137 56.5193 49.2918 56.5521 49.8277 55.8084C50.0684 55.4803 50.0684 55.4037 50.0574 52.4615C50.0574 49.574 50.0355 49.4099 49.7621 48.3818C48.9199 45.2318 46.9949 42.6396 44.2496 40.9553L43.4621 40.4631L44.0637 39.8724C45.7809 38.1881 46.7652 35.574 46.5902 33.2006C46.3059 29.5037 43.823 26.4631 40.2574 25.4349C39.3387 25.1724 37.3918 25.074 36.4621 25.2381ZM39.2293 28.574C41.1871 29.0771 42.6855 30.5865 43.1668 32.5662C43.4621 33.7912 43.3527 34.8412 42.7949 36.0443C41.4496 38.899 37.9715 39.9928 35.248 38.3959C33.5527 37.4115 32.6012 35.7162 32.6121 33.7256C32.6121 32.249 33.1371 31.024 34.198 29.9849C35.5762 28.6396 37.4465 28.1146 39.2293 28.574ZM40.673 42.9021C42.7621 43.5584 44.7746 45.2428 45.7699 47.1568C46.5574 48.6662 46.7434 49.4756 46.809 51.499L46.8637 53.2271H37.9277H28.9809L29.0465 51.6084C29.123 49.8365 29.2871 49.0053 29.7684 47.8678C31.5512 43.6787 36.3199 41.5131 40.673 42.9021Z" fill="#3E72F9"/>
<circle cx="12" cy="25" r="12" fill="#FF0000"/>
<circle cx="12" cy="25" r="11.5" stroke="white" stroke-opacity="0.3"/>
<path d="M17.3684 21.168C17.294 21.0931 17.2055 21.0335 17.108 20.9929C17.0105 20.9523 16.906 20.9314 16.8004 20.9314C16.6947 20.9314 16.5902 20.9523 16.4927 20.9929C16.3952 21.0335 16.3067 21.0931 16.2324 21.168L10.2724 27.136L7.76835 24.624C7.69113 24.5494 7.59998 24.4908 7.5001 24.4514C7.40021 24.4121 7.29355 24.3928 7.18621 24.3946C7.07886 24.3965 6.97294 24.4195 6.87447 24.4623C6.77601 24.505 6.68694 24.5668 6.61235 24.644C6.53776 24.7213 6.47911 24.8124 6.43975 24.9123C6.40038 25.0122 6.38108 25.1188 6.38293 25.2262C6.38479 25.3335 6.40777 25.4394 6.45057 25.5379C6.49336 25.6364 6.55513 25.7254 6.63235 25.8L9.70435 28.872C9.77872 28.947 9.8672 29.0065 9.96469 29.0471C10.0622 29.0878 10.1667 29.1087 10.2724 29.1087C10.378 29.1087 10.4825 29.0878 10.58 29.0471C10.6775 29.0065 10.766 28.947 10.8404 28.872L17.3684 22.344C17.4496 22.2691 17.5144 22.1782 17.5587 22.077C17.603 21.9758 17.6259 21.8665 17.6259 21.756C17.6259 21.6456 17.603 21.5363 17.5587 21.4351C17.5144 21.3339 17.4496 21.2429 17.3684 21.168Z" fill="white"/>
</g>
<defs>
<clipPath id="clip0_363_2283">
<rect width="66" height="56" fill="white"/>
</clipPath>
</defs>
</svg>
