<svg width="66" height="54" viewBox="0 0 66 54" fill="none" xmlns="http://www.w3.org/2000/svg">
<g clip-path="url(#clip0_253_3103)">
<path d="M36.3594 -2C37.4422 -2 38.525 -2 39.6406 -2C39.6406 -0.881094 39.6406 0.237813 39.6406 1.39062C40.182 1.42672 40.7234 1.46281 41.2812 1.5C41.7485 1.57103 42.2064 1.6468 42.6689 1.73926C42.7911 1.76347 42.9133 1.78769 43.0392 1.81264C48.8818 3.0091 54.4437 6.43867 57.9062 11.3438C57.9528 11.4097 57.9994 11.4756 58.0473 11.5435C60.6259 15.2337 62.6094 19.7865 62.6094 24.3594C63.7283 24.3594 64.8472 24.3594 66 24.3594C66 25.4422 66 26.525 66 27.6406C64.8811 27.6406 63.7622 27.6406 62.6094 27.6406C62.5733 28.182 62.5372 28.7234 62.5 29.2812C62.429 29.7485 62.3532 30.2064 62.2607 30.6689C62.2365 30.7911 62.2123 30.9133 62.1874 31.0392C61.2575 35.5799 59.0357 39.726 55.8281 43.0625C55.7659 43.1277 55.7037 43.1929 55.6396 43.26C51.6435 47.427 46.0708 50.1483 40.2969 50.6094C40.0803 50.6094 39.8638 50.6094 39.6406 50.6094C39.6406 51.7283 39.6406 52.8472 39.6406 54C38.5578 54 37.475 54 36.3594 54C36.3594 52.8811 36.3594 51.7622 36.3594 50.6094C35.818 50.5733 35.2766 50.5372 34.7188 50.5C34.2515 50.429 33.7936 50.3532 33.3311 50.2607C33.2089 50.2365 33.0867 50.2123 32.9608 50.1874C28.4201 49.2575 24.274 47.0357 20.9375 43.8281C20.8397 43.7348 20.8397 43.7348 20.74 43.6396C16.573 39.6435 13.8517 34.0708 13.3906 28.2969C13.3906 28.0803 13.3906 27.8638 13.3906 27.6406C12.2717 27.6406 11.1528 27.6406 10 27.6406C10 26.5578 10 25.475 10 24.3594C11.1189 24.3594 12.2378 24.3594 13.3906 24.3594C13.4267 23.818 13.4628 23.2766 13.5 22.7188C13.5515 22.3336 13.6063 21.958 13.6777 21.5771C13.6965 21.4766 13.7153 21.3761 13.7347 21.2725C14.1378 19.2219 14.7891 17.2758 15.6875 15.3906C15.7551 15.2483 15.7551 15.2483 15.8242 15.1032C17.5189 11.5947 20.1535 8.35413 23.3438 6.09375C23.4151 6.04243 23.4864 5.99111 23.5598 5.93823C26.5562 3.79898 29.9417 2.36265 33.5566 1.68457C33.6488 1.66712 33.7409 1.64967 33.8358 1.6317C34.6836 1.48368 35.4862 1.44884 36.3594 1.39062C36.3594 0.271719 36.3594 -0.847188 36.3594 -2ZM23.125 10.7969C23.0266 10.8884 22.9282 10.9799 22.8268 11.0742C19.3715 14.3751 17.2468 19.1997 16.7812 23.9219C16.7812 24.0662 16.7812 24.2106 16.7812 24.3594C18.3694 24.3594 19.9575 24.3594 21.5938 24.3594C21.5938 25.4422 21.5938 26.525 21.5938 27.6406C20.0056 27.6406 18.4175 27.6406 16.7812 27.6406C16.9309 29.2642 16.9309 29.2642 17.2324 30.8467C17.2673 30.9875 17.2673 30.9875 17.3028 31.1312C18.2851 34.9352 20.2266 38.1426 22.9062 40.9844C22.9861 41.0701 23.0659 41.1558 23.1481 41.2441C24.2473 42.3884 25.552 43.2974 26.883 44.1504C27.0361 44.2487 27.1881 44.3486 27.3398 44.4489C30.0064 46.1459 33.2474 46.9594 36.3594 47.2188C36.3594 45.6306 36.3594 44.0425 36.3594 42.4062C37.4422 42.4062 38.525 42.4062 39.6406 42.4062C39.6406 43.9944 39.6406 45.5825 39.6406 47.2188C41.2725 47.0673 41.2725 47.0673 42.8604 46.7607C42.9545 46.7374 43.0486 46.714 43.1456 46.69C44.8363 46.2556 46.4211 45.6468 47.9531 44.8125C48.0516 44.7599 48.0516 44.7599 48.152 44.7062C51.4789 42.9203 54.1243 40.2785 56.1504 37.117C56.2487 36.9639 56.3486 36.812 56.4489 36.6602C58.1459 33.9936 58.9594 30.7526 59.2188 27.6406C57.6306 27.6406 56.0425 27.6406 54.4062 27.6406C54.4062 26.5578 54.4062 25.475 54.4062 24.3594C55.9944 24.3594 57.5825 24.3594 59.2188 24.3594C59.0673 22.7275 59.0673 22.7275 58.7607 21.1396C58.7374 21.0455 58.714 20.9514 58.69 20.8544C58.2556 19.1637 57.6468 17.5789 56.8125 16.0469C56.7599 15.9484 56.7599 15.9484 56.7062 15.848C54.0413 10.8837 49.4416 7.24394 44.0843 5.57545C42.6614 5.15083 41.1321 4.78125 39.6406 4.78125C39.6406 6.36938 39.6406 7.9575 39.6406 9.59375C38.5578 9.59375 37.475 9.59375 36.3594 9.59375C36.3594 8.00562 36.3594 6.4175 36.3594 4.78125C31.4818 4.78125 26.5482 7.49353 23.125 10.7969Z" fill="#4C6BD7"/>
<path d="M41.8281 13.9687C43.2145 15.0476 44.2625 16.4683 44.5625 18.2343C44.7344 20.1875 44.4748 21.973 43.2423 23.5565C42.1851 24.7777 41.021 25.4123 39.5312 26C39.7258 26.0439 39.7258 26.0439 39.9243 26.0888C41.6578 26.5004 43.1089 27.1035 44.4531 28.2968C44.5264 28.3546 44.5998 28.4124 44.6753 28.472C46.5312 29.967 47.2506 32.0585 47.8438 34.3125C47.8438 35.9006 47.8438 37.4887 47.8438 39.125C41.3469 39.125 34.85 39.125 28.1562 39.125C28.1562 31.9781 28.1562 31.9781 30.4531 29.3906C30.5398 29.2806 30.5398 29.2806 30.6283 29.1684C32.1082 27.3313 34.2379 26.5043 36.4688 26C36.3892 25.9694 36.3097 25.9388 36.2278 25.9072C34.0804 25.051 32.7042 23.8949 31.7502 21.7779C31.1349 20.0605 31.2798 18.1441 32.0156 16.498C32.839 14.8465 34.219 13.7431 35.9219 13.0937C37.9122 12.4837 40.1055 12.8169 41.8281 13.9687ZM35.375 17.4687C34.8185 18.3437 34.7488 19.1786 34.8281 20.2031C35.0272 20.9823 35.4994 21.6738 36.1714 22.118C37.0844 22.6367 38.0177 22.8004 39.0583 22.5346C40.0386 22.1265 40.6225 21.4858 41.0625 20.5312C41.3092 19.7911 41.2951 18.8548 40.9941 18.1318C40.5685 17.3254 39.9806 16.7033 39.1198 16.366C37.6701 15.955 36.3628 16.3602 35.375 17.4687ZM33.2764 31.3252C32.0254 32.6403 31.5469 34.0586 31.5469 35.8437C35.8059 35.8437 40.065 35.8437 44.4531 35.8437C44.4531 33.9785 43.8623 32.5455 42.5681 31.2171C39.858 28.5721 35.9892 28.8234 33.2764 31.3252Z" fill="#4C6BD7"/>
<circle cx="12" cy="25" r="12" fill="#FF0000"/>
<circle cx="12" cy="25" r="11.5" stroke="white" stroke-opacity="0.3"/>
<path d="M17.3679 21.1678C17.2935 21.0928 17.205 21.0333 17.1075 20.9927C17.01 20.9521 16.9055 20.9312 16.7999 20.9312C16.6943 20.9312 16.5897 20.9521 16.4922 20.9927C16.3947 21.0333 16.3062 21.0928 16.2319 21.1678L10.2719 27.1358L7.76786 24.6238C7.69065 24.5492 7.59949 24.4905 7.49961 24.4512C7.39972 24.4118 7.29306 24.3925 7.18572 24.3944C7.07838 24.3962 6.97245 24.4192 6.87399 24.462C6.77552 24.5048 6.68645 24.5666 6.61186 24.6438C6.53727 24.721 6.47862 24.8122 6.43926 24.912C6.39989 25.0119 6.38059 25.1186 6.38245 25.2259C6.3843 25.3333 6.40729 25.4392 6.45008 25.5377C6.49288 25.6361 6.55464 25.7252 6.63186 25.7998L9.70386 28.8718C9.77823 28.9468 9.86671 29.0063 9.9642 29.0469C10.0617 29.0875 10.1663 29.1084 10.2719 29.1084C10.3775 29.1084 10.482 29.0875 10.5795 29.0469C10.677 29.0063 10.7655 28.9468 10.8399 28.8718L17.3679 22.3438C17.4491 22.2689 17.5139 22.178 17.5582 22.0768C17.6025 21.9756 17.6254 21.8663 17.6254 21.7558C17.6254 21.6453 17.6025 21.536 17.5582 21.4348C17.5139 21.3336 17.4491 21.2427 17.3679 21.1678Z" fill="white"/>
</g>
<defs>
<clipPath id="clip0_253_3103">
<rect width="66" height="54" fill="white"/>
</clipPath>
</defs>
</svg>
