<svg width="66" height="54" viewBox="0 0 66 54" fill="none" xmlns="http://www.w3.org/2000/svg">
<g clip-path="url(#clip0_252_3062)">
<path d="M25.0938 0.96875C33.6119 0.96875 42.13 0.96875 50.9062 0.96875C50.9062 4.21719 50.9062 7.46562 50.9062 10.8125C55.8872 10.8125 60.8681 10.8125 66 10.8125C66 24.7447 66 38.6769 66 53.0312C47.52 53.0312 29.04 53.0312 10 53.0312C10 39.0991 10 25.1669 10 10.8125C14.9809 10.8125 19.9619 10.8125 25.0938 10.8125C25.0938 7.56406 25.0938 4.31562 25.0938 0.96875ZM28.4844 4.35938C28.4844 6.48891 28.4844 8.61844 28.4844 10.8125C34.7647 10.8125 41.045 10.8125 47.5156 10.8125C47.5156 8.68297 47.5156 6.55344 47.5156 4.35938C41.2353 4.35938 34.955 4.35938 28.4844 4.35938ZM13.2812 14.0938C12.0793 23.2311 12.0793 23.2311 15.1675 33.2822C17.2034 35.2612 19.7635 35.1418 22.4106 35.1258C22.7098 35.125 23.0089 35.1247 23.308 35.1244C24.0102 35.1234 24.7125 35.1207 25.4147 35.1174C26.2942 35.1133 27.1737 35.1116 28.0533 35.1098C29.6189 35.1066 31.1844 35.1 32.75 35.0938C32.75 33.0725 32.75 31.0513 32.75 28.9688C36.215 28.9688 39.68 28.9688 43.25 28.9688C43.25 30.99 43.25 33.0112 43.25 35.0938C45.714 35.1036 45.714 35.1036 48.1779 35.1102C49.0597 35.1121 49.9415 35.1143 50.8233 35.1185C51.5219 35.1218 52.2205 35.1239 52.9191 35.1246C53.2883 35.125 53.6575 35.1262 54.0266 35.1284C56.5609 35.1432 58.8937 35.1284 60.8447 33.2854C65.1562 28.9373 62.7188 16.4668 62.7188 14.0938C46.4044 14.0938 30.09 14.0938 13.2812 14.0938ZM36.1406 32.3594C36.1406 33.2617 36.1406 34.1641 36.1406 35.0938C37.3678 35.0938 38.595 35.0938 39.8594 35.0938C39.8594 34.1914 39.8594 33.2891 39.8594 32.3594C38.6322 32.3594 37.405 32.3594 36.1406 32.3594ZM13.2812 36.1875C13.2812 40.627 13.2812 45.0666 13.2812 49.6406C29.5956 49.6406 45.91 49.6406 62.7188 49.6406C62.7188 45.2011 62.7188 40.7616 62.7188 36.1875C62.3217 36.4402 61.9247 36.6928 61.5156 36.9531C58.9419 38.4039 56.3646 38.4076 53.4825 38.4203C53.1862 38.4222 52.8898 38.4245 52.5935 38.4267C51.8986 38.4318 51.2038 38.4358 50.5089 38.4395C49.7164 38.4437 48.9239 38.4491 48.1314 38.4546C46.5043 38.4658 44.8771 38.4756 43.25 38.4844C43.2371 38.626 43.2241 38.7676 43.2108 38.9135C43.1926 39.1017 43.1743 39.2899 43.156 39.4781C43.1476 39.5712 43.1393 39.6642 43.1306 39.7601C43.0016 41.0597 42.4496 42.3032 41.4863 43.208C40.1591 44.2668 38.6593 44.535 37.0156 44.3906C35.7145 44.1448 34.4886 43.4094 33.7344 42.3125C33.2004 41.394 32.9424 40.5347 32.8457 39.4824C32.8363 39.3863 32.8268 39.2901 32.8171 39.191C32.794 38.9556 32.7719 38.72 32.75 38.4844C32.6496 38.4838 32.6496 38.4838 32.5471 38.4833C30.9089 38.4743 29.2707 38.4643 27.6326 38.4529C26.8403 38.4475 26.0481 38.4424 25.2558 38.4382C24.5644 38.4346 23.8729 38.4302 23.1814 38.425C22.8161 38.4223 22.4509 38.42 22.0856 38.4184C17.8772 38.3992 17.8772 38.3992 16.4258 37.8691C16.3457 37.8412 16.2655 37.8133 16.183 37.7846C15.1273 37.3993 14.2135 36.809 13.2812 36.1875ZM36.1406 38.4844C36.1237 39.7027 36.1237 39.7027 36.7354 40.6514C37.2405 41.0826 37.615 41.159 38.2696 41.1436C38.8577 41.0711 39.2032 40.8099 39.5723 40.3438C39.9301 39.6831 39.8594 39.2933 39.8594 38.4844C38.6322 38.4844 37.405 38.4844 36.1406 38.4844Z" fill="#4C6BD7"/>
<circle cx="12" cy="25" r="12" fill="#FF0000"/>
<circle cx="12" cy="25" r="11.5" stroke="white" stroke-opacity="0.3"/>
<path d="M17.3679 21.1678C17.2935 21.0928 17.205 21.0333 17.1075 20.9927C17.01 20.9521 16.9055 20.9312 16.7999 20.9312C16.6943 20.9312 16.5897 20.9521 16.4922 20.9927C16.3947 21.0333 16.3062 21.0928 16.2319 21.1678L10.2719 27.1358L7.76786 24.6238C7.69065 24.5492 7.59949 24.4905 7.49961 24.4512C7.39972 24.4118 7.29306 24.3925 7.18572 24.3944C7.07838 24.3962 6.97245 24.4192 6.87399 24.462C6.77552 24.5048 6.68645 24.5666 6.61186 24.6438C6.53727 24.721 6.47862 24.8122 6.43926 24.912C6.39989 25.0119 6.38059 25.1186 6.38245 25.2259C6.3843 25.3333 6.40729 25.4392 6.45008 25.5377C6.49288 25.6361 6.55464 25.7252 6.63186 25.7998L9.70386 28.8718C9.77823 28.9468 9.86671 29.0063 9.9642 29.0469C10.0617 29.0875 10.1663 29.1084 10.2719 29.1084C10.3775 29.1084 10.482 29.0875 10.5795 29.0469C10.677 29.0063 10.7655 28.9468 10.8399 28.8718L17.3679 22.3438C17.4491 22.2689 17.5139 22.178 17.5582 22.0768C17.6025 21.9756 17.6254 21.8663 17.6254 21.7558C17.6254 21.6453 17.6025 21.536 17.5582 21.4348C17.5139 21.3336 17.4491 21.2427 17.3679 21.1678Z" fill="white"/>
</g>
<defs>
<clipPath id="clip0_252_3062">
<rect width="66" height="54" fill="white"/>
</clipPath>
</defs>
</svg>
