<svg width="256" height="256" viewBox="0 0 256 256" fill="none" xmlns="http://www.w3.org/2000/svg">
<g clip-path="url(#clip0_446_10208)">
<path d="M36.9173 78.7755L23.1861 87.1501L19.1812 87.1786H15.2049L13.6029 88.8364C11.9437 90.5799 8.16767 96.6108 8.16767 97.4968C8.16767 98.2114 9.02587 98.6115 10.5706 98.6115H11.8865V109.044V119.477H10.8281C10.2273 119.477 9.31193 119.734 8.82562 120.048C7.68136 120.734 7.56693 121.963 8.48234 123.478C9.45497 125.05 14.7758 131.481 15.6626 132.138C16.0917 132.453 16.4636 132.939 16.4636 133.167C16.4636 133.425 15.8056 134.196 15.0046 134.882C13.1452 136.483 12.4873 137.912 12.4587 140.284C12.4587 142.371 12.8878 143.543 14.175 145.029C16.0345 147.116 18.6663 147.887 21.3553 147.087C23.3291 146.515 24.8167 145.286 25.7321 143.428C26.3614 142.199 26.4759 141.542 26.4759 139.57C26.4759 137.283 26.4473 137.198 25.8179 137.198C24.9597 137.198 23.0431 139.141 23.0431 140.027C23.0431 141.199 22.1849 142.571 21.155 143.057C19.925 143.629 18.7807 143.428 17.7795 142.428C15.8628 140.513 17.1501 137.198 19.8105 137.198H20.7546V134.797C20.7546 132.91 20.8404 132.339 21.2409 132.024C22.2135 131.224 28.4783 123.164 28.65 122.478C29.1077 120.706 27.8776 119.477 25.6177 119.477H24.4734V109.044V98.6115H32.7693H41.0652V126.736C41.0652 154.718 41.151 158.091 42.0378 160.206C42.3811 160.978 42.753 161.207 45.0987 162.007C50.677 163.865 52.1073 164.036 57.6856 163.465C63.6358 162.864 67.4977 161.75 76.9664 157.92C79.7985 156.776 83.174 155.49 84.4899 155.09C89.2386 153.604 94.2448 153.118 98.1353 153.775L99.8517 154.061L100.767 153.003C102.026 151.546 104.629 146.43 105.544 143.657C107.347 138.226 108.148 131.653 107.919 124.507C107.49 111.731 103.971 102.642 96.7908 95.8676C94.2734 93.4667 92.7858 92.4092 89.9538 91.0087C85.6342 88.8364 72.7327 79.9473 63.979 73.0876L60.4032 70.3151L55.5401 70.3437L50.6484 70.3723L36.9173 78.7755ZM69.8148 83.5487C71.0735 84.3204 72.1605 85.0064 72.2177 85.0636C72.2749 85.1207 69.2427 85.1779 65.4666 85.1779H58.5724L58.4008 83.663C58.315 82.8627 58.1433 80.7762 58.0575 79.0899L57.8572 76.003L62.6918 79.0613C65.3522 80.7476 68.5561 82.7484 69.8148 83.5487ZM50.1049 80.0902C49.9904 82.1767 49.8188 84.1775 49.733 84.5205L49.59 85.1779H42.9818C38.0615 85.1779 36.4595 85.0921 36.6884 84.8635C37.0317 84.5205 49.9904 76.346 50.1907 76.3174C50.2479 76.3174 50.1907 78.0323 50.1049 80.0902ZM20.4685 109.044V119.477H18.18H15.8914V109.044V98.6115H18.18H20.4685V109.044ZM74.8495 103.613C79.8843 104.357 82.5733 105.786 85.0621 109.073C88.0944 113.074 89.2386 117.704 89.2386 126.193C89.2386 135.94 87.4078 141.971 83.2026 146.229C81.6007 147.859 80.7997 148.345 78.2823 149.288C76.8234 149.831 75.9366 149.888 68.1842 150.002L59.6595 150.117V126.651V103.185H65.8957C69.8434 103.185 73.1045 103.328 74.8495 103.613Z" fill="#FF0000"/>
<path d="M124.339 88.2075C121.421 89.0078 119.333 90.8943 118.389 93.581C117.903 94.9529 117.874 97.068 117.874 126.765C117.874 157.891 117.874 158.52 118.446 159.92C119.104 161.578 119.762 161.978 123.338 162.979C125.34 163.55 126.256 163.607 131.462 163.607C136.869 163.607 137.555 163.55 140.101 162.836C143.248 162.007 146.624 160.663 152.488 157.977C159.983 154.547 162.643 153.918 169.795 153.975C173.342 154.004 175.087 154.147 176.832 154.547L179.178 155.09L180.179 153.232C182.096 149.688 182.525 147.659 182.525 142.485C182.525 138.226 182.468 137.769 181.752 135.826C180.15 131.395 177.376 128.108 173.142 125.593L170.71 124.135L172.741 122.449C176.889 119.019 178.92 114.76 179.178 109.015C179.264 106.443 179.206 105.443 178.72 103.499C176.775 95.8676 170.968 90.3512 162.929 88.5505C160.355 87.9789 159.382 87.9217 143.048 87.8645C128.544 87.7788 125.655 87.836 124.339 88.2075ZM155.635 103.299C159.64 104.471 161.013 106.129 161.041 109.901C161.041 111.645 160.927 112.217 160.212 113.646C159.039 115.904 157.551 117.018 154.719 117.647C152.888 118.076 151.058 118.162 144.335 118.162L136.182 118.19L136.096 110.387L136.039 102.556L144.964 102.699C152.316 102.784 154.233 102.899 155.635 103.299ZM156.264 133.082C161.699 134.196 164.074 136.74 164.074 141.485C164.074 146.144 161.585 149.002 156.436 150.26C154.834 150.631 152.803 150.717 145.336 150.745L136.182 150.774L136.096 141.685L136.039 132.624H145.05C152.173 132.624 154.548 132.71 156.264 133.082Z" fill="#FF0000"/>
<path d="M198.716 88.2075C195.626 89.0364 193.595 90.98 192.68 93.9811C192.136 95.7532 192.107 96.7536 192.107 127.108C192.107 148.773 192.193 158.748 192.422 159.634C192.737 160.864 192.737 160.864 194.911 161.578C198.315 162.693 201.662 163.236 205.238 163.236C208.871 163.207 208.842 163.236 209.758 160.921C210.215 159.777 210.273 158.234 210.358 146.429L210.444 133.225L223.374 133.139L236.305 133.053L238.021 132.196C240.166 131.138 241.425 129.537 241.883 127.337C242.598 123.907 241.139 120.877 238.021 119.334L236.305 118.476L223.374 118.39L210.416 118.305V110.616V102.899H224.519C232.815 102.899 239.337 102.784 240.424 102.613C244.715 101.898 247.061 99.326 247.061 95.3245C247.061 92.0661 245.687 89.8367 242.884 88.5505L241.454 87.8931L220.857 87.836C203.493 87.7788 200.003 87.836 198.716 88.2075Z" fill="#FF0000"/>
<path d="M88.4084 163.409C87.3213 163.667 85.4905 164.295 84.3463 164.81C82.258 165.782 78.8252 168.183 78.8252 168.669C78.8252 169.069 81.8289 168.754 86.2629 167.868C92.1845 166.725 96.5613 166.782 103.284 168.154C106.116 168.754 109.463 169.355 110.721 169.526C113.096 169.84 119.246 170.355 119.389 170.241C119.504 170.126 111.122 166.925 107.746 165.782C100.309 163.267 93.014 162.38 88.4084 163.409Z" fill="#3E72F9"/>
<path d="M170.938 163.353C167.391 164.096 163.644 166.011 161.67 168.069L160.812 168.955L162.671 168.783C163.672 168.697 166.361 168.269 168.65 167.869C174.886 166.725 178.919 166.782 185.671 168.183C191.02 169.298 201.547 170.67 201.547 170.241C201.547 170.069 194.024 167.183 189.876 165.782C187.644 165.01 184.555 164.124 183.01 163.81C179.406 163.038 173.456 162.838 170.938 163.353Z" fill="#3E72F9"/>
<path d="M52.9365 170.812C48.4739 171.784 41.122 175.185 38.5188 177.443C37.0599 178.73 37.8037 178.672 42.3521 177.1C47.0436 175.5 50.4764 175.042 54.138 175.528C57.5994 175.986 60.2598 176.929 64.9513 179.387C69.5855 181.816 73.7049 183.503 77.624 184.589C80.2272 185.303 80.8565 185.361 87.5791 185.475C94.5304 185.561 94.9023 185.561 97.8488 184.846C99.508 184.446 102.197 183.589 103.799 182.96C107.375 181.531 111.952 179.158 110.722 179.387C106.288 180.13 98.1635 181.016 94.5018 181.159C87.1786 181.445 85.0045 180.873 74.8491 176.186C67.6689 172.87 64.6652 171.698 61.5757 170.955C58.8867 170.298 55.4825 170.241 52.9365 170.812Z" fill="#3E72F9"/>
<path d="M139.329 170.784C136.153 171.527 131.09 173.585 128.029 175.385C123.109 178.301 122.994 179.101 127.686 177.472C132.463 175.786 134.351 175.443 138.041 175.443C142.647 175.471 144.735 176.071 151.343 179.387C157.522 182.445 160.097 183.503 164.016 184.589C166.619 185.303 167.249 185.361 173.971 185.475C180.923 185.561 181.294 185.561 184.241 184.846C185.9 184.446 188.589 183.589 190.191 182.96C193.767 181.531 198.344 179.158 197.114 179.387C190.42 180.53 184.67 181.073 179.378 181.073C171.826 181.073 172.255 181.216 158.295 174.842C151.057 171.555 148.054 170.612 144.192 170.498C142.189 170.441 140.416 170.526 139.329 170.784Z" fill="#3E72F9"/>
<path d="M219.283 171.641C215.65 172.699 203.264 179.93 203.95 180.587C204.008 180.645 206.039 180.102 208.442 179.416C217.453 176.786 219.541 176.443 228.781 176.014L235.875 175.671L233.444 174.299C229.668 172.127 227.436 171.441 223.717 171.355C221.686 171.298 220.113 171.384 219.283 171.641Z" fill="#3E72F9"/>
</g>
<defs>
<clipPath id="clip0_446_10208">
<rect width="240.842" height="117.895" fill="white" transform="translate(6.7373 69.0527)"/>
</clipPath>
</defs>
</svg>
