<svg width="66" height="32" viewBox="0 0 66 32" fill="none" xmlns="http://www.w3.org/2000/svg">
<g id="Group">
<path id="Vector" d="M8.50613 2.63919L4.7791 4.91229L3.69206 4.92005H2.61277L2.17795 5.37002C1.7276 5.84326 0.702671 7.4802 0.702671 7.7207C0.702671 7.91465 0.93561 8.02326 1.3549 8.02326H1.71207V10.8549V13.6866H1.42478C1.26172 13.6866 1.01326 13.7564 0.881258 13.8418C0.570672 14.028 0.539614 14.3616 0.788082 14.7727C1.05208 15.1994 2.4963 16.945 2.73701 17.1234C2.85348 17.2088 2.95442 17.3407 2.95442 17.4027C2.95442 17.4725 2.77583 17.682 2.55842 17.8682C2.05372 18.3027 1.87513 18.6906 1.86737 19.3345C1.86737 19.9008 1.98384 20.2189 2.33324 20.6223C2.83795 21.1886 3.55229 21.3981 4.28217 21.1809C4.81793 21.0257 5.22169 20.6921 5.47016 20.1879C5.64098 19.8543 5.67204 19.6758 5.67204 19.1405C5.67204 18.5199 5.66427 18.4966 5.49345 18.4966C5.26051 18.4966 4.74028 19.0241 4.74028 19.2646C4.74028 19.5827 4.50734 19.9551 4.22782 20.087C3.89394 20.2422 3.58335 20.1879 3.31159 19.9163C2.79136 19.3965 3.14077 18.4966 3.86288 18.4966H4.11911V17.8449C4.11911 17.3329 4.1424 17.1777 4.25111 17.0924C4.51511 16.8752 6.21556 14.6874 6.26215 14.5012C6.38638 14.0202 6.0525 13.6866 5.4391 13.6866H5.12851V10.8549V8.02326H7.38026H9.632V15.6572C9.632 23.2523 9.6553 24.1677 9.896 24.7418C9.98917 24.9513 10.0901 25.0133 10.7268 25.2306C12.2409 25.7348 12.6292 25.7814 14.1433 25.6262C15.7583 25.4633 16.8065 25.1608 19.3766 24.1212C20.1453 23.8109 21.0615 23.4617 21.4187 23.3531C22.7076 22.9497 24.0665 22.8178 25.1224 22.9963L25.5883 23.0738L25.8368 22.7868C26.1784 22.3911 26.885 21.0024 27.1335 20.2499C27.6227 18.7759 27.8401 16.9915 27.778 15.052C27.6615 11.5842 26.7064 9.11715 24.7575 7.27849C24.0742 6.62682 23.6705 6.33977 22.9018 5.95963C21.7293 5.37002 18.2275 2.95727 15.8515 1.09534L14.8809 0.342812L13.5609 0.350571L12.2332 0.35833L8.50613 2.63919ZM17.4355 3.93478C17.7771 4.14425 18.0722 4.33044 18.0877 4.34596C18.1032 4.36147 17.2802 4.37699 16.2552 4.37699H14.384L14.3374 3.96581C14.3141 3.74859 14.2675 3.18225 14.2442 2.72453L14.1898 1.88666L15.5021 2.71677C16.2242 3.17449 17.0938 3.71756 17.4355 3.93478ZM12.0856 2.99606C12.0546 3.5624 12.008 4.10546 11.9847 4.19855L11.9459 4.37699H10.1522C8.81672 4.37699 8.3819 4.35372 8.44401 4.29165C8.53719 4.19855 12.0546 1.97976 12.1089 1.972C12.1244 1.972 12.1089 2.43748 12.0856 2.99606ZM4.04146 10.8549V13.6866H3.42029H2.79912V10.8549V8.02326H3.42029H4.04146V10.8549ZM18.802 9.38092C20.1686 9.58263 20.8985 9.97053 21.574 10.8627C22.3971 11.9488 22.7076 13.2056 22.7076 15.5098C22.7076 18.1553 22.2107 19.7922 21.0693 20.9481C20.6345 21.3903 20.4171 21.5222 19.7338 21.7783C19.3378 21.9257 19.0971 21.9412 16.9929 21.9722L14.679 22.0032V15.6339V9.26455H16.3717C17.4432 9.26455 18.3284 9.30334 18.802 9.38092Z" fill="#FF0000"/>
<path id="Vector_2" d="M32.2348 5.19936C31.4429 5.41658 30.876 5.92861 30.6198 6.65787C30.4878 7.03025 30.48 7.60435 30.48 15.6649C30.48 24.1134 30.48 24.2841 30.6353 24.6643C30.8139 25.1142 30.9925 25.2228 31.9631 25.4944C32.5066 25.6495 32.7551 25.665 34.1682 25.665C35.6358 25.665 35.8221 25.6495 36.5132 25.4556C37.3673 25.2306 38.2835 24.866 39.8752 24.1367C41.9096 23.2057 42.6317 23.0351 44.5729 23.0506C45.5357 23.0583 46.0093 23.0971 46.483 23.2057L47.1197 23.3531L47.3914 22.8489C47.9116 21.8869 48.0281 21.3361 48.0281 19.9319C48.0281 18.7759 48.0126 18.6518 47.8185 18.1242C47.3837 16.9217 46.6305 16.0296 45.4813 15.3469L44.8213 14.9512L45.3726 14.4935C46.4985 13.5625 47.0498 12.4066 47.1197 10.8472C47.1429 10.149 47.1274 9.87745 46.9954 9.3499C46.4674 7.27851 44.8912 5.78121 42.7093 5.29245C42.0105 5.13729 41.7465 5.12177 37.3129 5.10626C33.3763 5.08298 32.592 5.0985 32.2348 5.19936ZM40.7294 9.2956C41.8164 9.61367 42.1891 10.0636 42.1969 11.0877C42.1969 11.5609 42.1658 11.7161 41.9717 12.104C41.6534 12.7169 41.2496 13.0195 40.4809 13.1901C39.984 13.3065 39.487 13.3298 37.6623 13.3298L35.4494 13.3375L35.4261 11.2196L35.4106 9.09389L37.8332 9.13268C39.8287 9.15595 40.3489 9.18698 40.7294 9.2956ZM40.9002 17.3795C42.3755 17.682 43.0199 18.3725 43.0199 19.6603C43.0199 20.9249 42.3444 21.7007 40.9468 22.042C40.5119 22.1429 39.9607 22.1662 37.9341 22.1739L35.4494 22.1817L35.4261 19.7146L35.4106 17.2553H37.8564C39.7898 17.2553 40.4343 17.2786 40.9002 17.3795Z" fill="#FF0000"/>
<path id="Vector_3" d="M52.4229 5.19938C51.5843 5.42436 51.033 5.95191 50.7846 6.7665C50.637 7.2475 50.6293 7.51903 50.6293 15.7581C50.6293 21.6386 50.6526 24.3462 50.7147 24.5867C50.8001 24.9203 50.8001 24.9203 51.3902 25.1142C52.3142 25.4168 53.2227 25.5642 54.1932 25.5642C55.1793 25.5565 55.1716 25.5642 55.4201 24.9358C55.5443 24.6255 55.5598 24.2066 55.5831 21.0025L55.6064 17.4183L59.116 17.395L62.6256 17.3717L63.0915 17.139C63.6739 16.8519 64.0155 16.4175 64.1397 15.8201C64.3339 14.8892 63.9379 14.0668 63.0915 13.6479L62.6256 13.4151L59.116 13.3919L55.5986 13.3686V11.2817V9.18701H59.4266C61.6783 9.18701 63.4487 9.15597 63.7437 9.10943C64.9084 8.91548 65.5451 8.21725 65.5451 7.13113C65.5451 6.24671 65.1724 5.64159 64.4115 5.29247L64.0233 5.11404L58.4327 5.09852C53.7196 5.08301 52.7723 5.09852 52.4229 5.19938Z" fill="#FF0000"/>
<g id="Group 17">
<path id="Vector_4" d="M22.4824 25.6111C22.1874 25.681 21.6904 25.8516 21.3799 25.9913C20.813 26.2551 19.8813 26.9067 19.8813 27.0386C19.8813 27.1472 20.6966 27.0619 21.9001 26.8214C23.5074 26.5111 24.6954 26.5266 26.52 26.899C27.2887 27.0619 28.1972 27.2248 28.5389 27.2714C29.1833 27.3567 30.8527 27.4963 30.8915 27.4653C30.9226 27.4343 28.6476 26.5654 27.7313 26.2551C25.7125 25.5723 23.7325 25.3318 22.4824 25.6111Z" fill="#3E72F9"/>
<path id="Vector_5" d="M44.8834 25.5958C43.9206 25.7975 42.9035 26.3173 42.3677 26.8759L42.1348 27.1164L42.6395 27.0698C42.9112 27.0465 43.6411 26.9302 44.2623 26.8216C45.955 26.5112 47.0498 26.5267 48.8822 26.9069C50.3342 27.2095 53.1916 27.5818 53.1916 27.4655C53.1916 27.4189 51.1495 26.6354 50.0236 26.2552C49.418 26.0458 48.5794 25.8053 48.1601 25.7199C47.1818 25.5104 45.5667 25.4561 44.8834 25.5958Z" fill="#3E72F9"/>
<path id="Vector_6" d="M12.8543 27.6205C11.643 27.8843 9.64751 28.8075 8.94092 29.4204C8.54493 29.7695 8.74681 29.754 9.98139 29.3273C11.2548 28.8929 12.1865 28.7687 13.1804 28.9006C14.1199 29.0247 14.842 29.2808 16.1154 29.9479C17.3733 30.6074 18.4914 31.0651 19.5552 31.3599C20.2618 31.5539 20.4326 31.5694 22.2573 31.6004C24.1441 31.6237 24.245 31.6237 25.0448 31.4297C25.4951 31.3211 26.225 31.0884 26.6598 30.9177C27.6304 30.5298 28.8727 29.8859 28.5389 29.9479C27.3353 30.1497 25.1302 30.3902 24.1363 30.4289C22.1486 30.5065 21.5585 30.3514 18.802 29.079C16.8531 28.1791 16.0378 27.861 15.1992 27.6593C14.4693 27.4809 13.5454 27.4654 12.8543 27.6205Z" fill="#3E72F9"/>
<path id="Vector_7" d="M36.3035 27.6128C35.4416 27.8145 34.0673 28.3731 33.2365 28.8618C31.901 29.6531 31.8699 29.8704 33.1433 29.4282C34.44 28.9704 34.9525 28.8773 35.9541 28.8773C37.2042 28.8851 37.771 29.048 39.5647 29.9479C41.2418 30.7781 41.9406 31.0651 43.0044 31.3599C43.711 31.5539 43.8818 31.5694 45.7065 31.6004C47.5933 31.6237 47.6942 31.6237 48.494 31.4297C48.9443 31.3211 49.6742 31.0884 50.109 30.9177C51.0796 30.5298 52.322 29.8859 51.9881 29.9479C50.1712 30.2583 48.6105 30.4057 47.174 30.4057C45.1241 30.4057 45.2406 30.4445 41.4515 28.7144C39.487 27.8222 38.6717 27.5662 37.6235 27.5352C37.08 27.5197 36.5986 27.543 36.3035 27.6128Z" fill="#3E72F9"/>
<path id="Vector_8" d="M58.0057 27.8455C57.0196 28.1326 53.6575 30.0953 53.8438 30.2738C53.8593 30.2893 54.4106 30.1419 55.0629 29.9557C57.5087 29.242 58.0755 29.1489 60.5835 29.0325L62.5091 28.9394L61.8492 28.567C60.8242 27.9774 60.2186 27.7912 59.2092 27.7679C58.6579 27.7524 58.2308 27.7757 58.0057 27.8455Z" fill="#3E72F9"/>
</g>
</g>
</svg>
