<svg width="260" height="46" viewBox="0 0 260 46" fill="none" xmlns="http://www.w3.org/2000/svg">
<g clip-path="url(#clip0_373_1251)">
<path d="M11.6476 3.37542L6.34819 6.60748L4.80254 6.61852H3.26793L2.64968 7.25831C2.00934 7.93119 0.552011 10.2587 0.552011 10.6007C0.552011 10.8765 0.883221 11.0309 1.4794 11.0309H1.98725V15.0572V19.0835H1.57876C1.34692 19.0835 0.993624 19.1828 0.805939 19.3041C0.364325 19.5688 0.320164 20.0432 0.673454 20.6278C1.04883 21.2345 3.10233 23.7165 3.44458 23.9702C3.61018 24.0915 3.75371 24.2791 3.75371 24.3673C3.75371 24.4666 3.49978 24.7644 3.19065 25.0292C2.47303 25.6469 2.2191 26.1984 2.20806 27.114C2.20806 27.9193 2.37367 28.3715 2.87048 28.9452C3.5881 29.7504 4.60382 30.0482 5.64161 29.7394C6.40339 29.5188 6.97749 29.0444 7.33078 28.3274C7.57367 27.8531 7.61783 27.5994 7.61783 26.8382C7.61783 25.9558 7.60679 25.9227 7.3639 25.9227C7.03269 25.9227 6.29299 26.6728 6.29299 27.0147C6.29299 27.467 5.96178 27.9965 5.56432 28.184C5.08959 28.4046 4.64798 28.3274 4.26156 27.9413C3.52186 27.2023 4.01868 25.9227 5.04543 25.9227H5.40976V24.9961C5.40976 24.268 5.44288 24.0474 5.59745 23.9261C5.97282 23.6172 8.39065 20.5065 8.45689 20.2417C8.63354 19.5578 8.1588 19.0835 7.28662 19.0835H6.845V15.0572V11.0309H10.0467H13.2484V21.8853C13.2484 32.6846 13.2815 33.9863 13.6238 34.8026C13.7563 35.1004 13.8998 35.1887 14.8051 35.4975C16.958 36.2145 17.51 36.2807 19.6628 36.0601C21.9592 35.8285 23.4497 35.3983 27.104 33.9201C28.197 33.4789 29.4998 32.9825 30.0076 32.828C31.8403 32.2544 33.7724 32.0669 35.2739 32.3206L35.9363 32.4309L36.2896 32.0228C36.7754 31.4602 37.78 29.4857 38.1333 28.4157C38.8289 26.3198 39.138 23.7827 39.0497 21.0249C38.8841 16.0941 37.5261 12.5863 34.755 9.97192C33.7834 9.04532 33.2093 8.63718 32.1163 8.09666C30.4492 7.25831 25.4701 3.82768 22.0917 1.18026L20.7117 0.110252L18.8348 0.121284L16.9469 0.132317L11.6476 3.37542ZM24.3439 5.21758C24.8297 5.51542 25.2493 5.78016 25.2713 5.80222C25.2934 5.82429 24.1231 5.84635 22.6658 5.84635H20.0051L19.9388 5.26171C19.9057 4.95284 19.8395 4.14758 19.8064 3.49675L19.7291 2.30541L21.5949 3.48572C22.6216 4.13655 23.8582 4.90872 24.3439 5.21758ZM16.7371 3.88284C16.693 4.6881 16.6267 5.46026 16.5936 5.59263L16.5384 5.84635H13.9881C12.0892 5.84635 11.4709 5.81326 11.5592 5.72501C11.6917 5.59264 16.693 2.43779 16.7703 2.42675C16.7923 2.42675 16.7703 3.08861 16.7371 3.88284ZM5.29936 15.0572V19.0835H4.41613H3.5329V15.0572V11.0309H4.41613H5.29936V15.0572ZM26.287 12.9613C28.2301 13.2481 29.2679 13.7997 30.2284 15.0682C31.3987 16.6126 31.8403 18.3996 31.8403 21.6758C31.8403 25.4373 31.1338 27.7648 29.5108 29.4085C28.8926 30.0372 28.5834 30.2247 27.6119 30.5888C27.0488 30.7984 26.7066 30.8204 23.7146 30.8645L20.4246 30.9087V21.8523V12.7958H22.8314C24.355 12.7958 25.6136 12.851 26.287 12.9613Z" fill="#FF0000"/>
<path d="M45.3868 7.01559C44.2607 7.32446 43.4548 8.0525 43.0904 9.08941C42.9028 9.6189 42.8917 10.4352 42.8917 21.8963C42.8917 33.909 42.8917 34.1517 43.1125 34.6922C43.3665 35.332 43.6204 35.4865 45.0004 35.8726C45.7733 36.0932 46.1265 36.1152 48.1359 36.1152C50.2225 36.1152 50.4875 36.0932 51.4701 35.8174C52.6845 35.4975 53.9873 34.979 56.2505 33.9421C59.1431 32.6184 60.1699 32.3757 62.9299 32.3978C64.2989 32.4088 64.9724 32.464 65.6459 32.6184L66.5512 32.828L66.9376 32.111C67.6773 30.7432 67.8429 29.96 67.8429 27.9634C67.8429 26.3198 67.8208 26.1433 67.5448 25.3932C66.9265 23.6834 65.8556 22.4148 64.2217 21.4441L63.2832 20.8815L64.0671 20.2307C65.6679 18.907 66.4518 17.2633 66.5512 15.0461C66.5843 14.0533 66.5622 13.6673 66.3745 12.9171C65.6238 9.97189 63.3826 7.84291 60.2803 7.14796C59.2866 6.92734 58.9113 6.90528 52.6072 6.88322C47.0098 6.85013 45.8947 6.87219 45.3868 7.01559ZM57.465 12.8399C59.0106 13.2922 59.5406 13.932 59.5516 15.3881C59.5516 16.061 59.5074 16.2816 59.2314 16.8331C58.7788 17.7046 58.2047 18.1348 57.1117 18.3775C56.4051 18.5429 55.6985 18.576 53.104 18.576L49.9575 18.5871L49.9244 15.5756L49.9023 12.5531L53.3469 12.6083C56.1843 12.6414 56.924 12.6855 57.465 12.8399ZM57.7079 24.3342C59.8055 24.7644 60.7219 25.7461 60.7219 27.5773C60.7219 29.3753 59.7614 30.4784 57.7741 30.9638C57.1558 31.1072 56.372 31.1403 53.4904 31.1513L49.9575 31.1623L49.9244 27.6545L49.9023 24.1577H53.38C56.1291 24.1577 57.0454 24.1908 57.7079 24.3342Z" fill="#FF0000"/>
<path d="M74.0917 7.01568C72.8993 7.33558 72.1155 8.08568 71.7622 9.24393C71.5524 9.92785 71.5414 10.3139 71.5414 22.0288C71.5414 30.3903 71.5745 34.2401 71.6628 34.582C71.7843 35.0564 71.7843 35.0564 72.6233 35.3321C73.9371 35.7623 75.2289 35.9719 76.6089 35.9719C78.011 35.9609 78 35.9719 78.3533 35.0784C78.5299 34.6372 78.552 34.0415 78.5851 29.4857L78.6182 24.3894L83.6085 24.3563L88.5987 24.3232L89.2611 23.9923C90.0891 23.5842 90.5749 22.9664 90.7516 22.1171C91.0276 20.7933 90.4645 19.6241 89.2611 19.0284L88.5987 18.6975L83.6085 18.6644L78.6072 18.6313V15.6639V12.6856H84.0501C87.2518 12.6856 89.769 12.6415 90.1885 12.5753C91.8446 12.2995 92.7499 11.3067 92.7499 9.76239C92.7499 8.50486 92.2199 7.64445 91.138 7.14805L90.586 6.89434L82.6369 6.87228C75.9354 6.85022 74.5885 6.87228 74.0917 7.01568Z" fill="#FF0000"/>
<path d="M135.907 4.57783V5.73608H137.485H139.053L139.02 4.57783L138.987 3.41958H137.441H135.907V4.57783Z" fill="#3E72F9"/>
<path d="M166.82 4.57783V5.73608H168.365H169.911V4.57783V3.41958H168.365H166.82V4.57783Z" fill="#3E72F9"/>
<path d="M115.935 7.11494C113.638 7.54515 111.982 9.14464 111.331 11.5825C111.077 12.5532 111.066 14.8807 111.32 15.9066C112.004 18.6974 113.991 20.33 116.862 20.4845C118.341 20.5617 119.368 20.3852 120.439 19.8447C122.504 18.8188 123.652 16.6567 123.652 13.7997C123.652 11.2074 122.713 9.15567 120.98 7.96433C119.799 7.14804 117.646 6.78401 115.935 7.11494ZM118.573 9.75134C119.545 10.2367 120.163 11.4832 120.296 13.2812C120.56 16.6347 118.573 18.885 116.299 17.826C115.636 17.5171 115.129 16.9325 114.786 16.1052C114.577 15.5647 114.543 15.2999 114.555 13.7887C114.555 12.2554 114.577 12.0127 114.808 11.428C115.504 9.67412 117.017 9.00124 118.573 9.75134Z" fill="#3E72F9"/>
<path d="M146.34 7.17005C145.092 7.42376 143.922 8.11871 143.226 9.02325C142.166 10.4132 142.376 12.6855 143.657 13.8438C144.286 14.4174 145.07 14.7483 146.814 15.1785C148.658 15.6308 148.868 15.719 149.21 16.1272C149.674 16.6787 149.519 17.3626 148.846 17.7818C148.548 17.9583 148.228 18.0355 147.521 18.0686C146.053 18.1458 144.684 17.7487 143.403 16.8773C142.409 16.2044 142.42 16.1934 142.42 17.9142C142.42 18.9952 142.454 19.4144 142.564 19.5027C142.862 19.7564 144.772 20.2969 145.766 20.4182C149.74 20.9036 152.589 19.3041 152.776 16.4912C152.931 14.1416 151.761 13.0275 148.217 12.1671C146.77 11.8141 146.516 11.7258 146.207 11.4059C145.346 10.5566 146.163 9.54171 147.808 9.40934C149.034 9.31006 150.392 9.72923 151.661 10.6007C151.915 10.7772 152.147 10.9206 152.18 10.9206C152.213 10.9206 152.246 10.2367 152.246 9.38727V7.865L151.75 7.67748C150.392 7.14799 147.687 6.90531 146.34 7.17005Z" fill="#3E72F9"/>
<path d="M101.682 13.7886V20.2969L105.965 20.2748L110.238 20.2417V19.0283V17.8149L107.566 17.7818L104.883 17.7598V12.5201V7.28035H103.282H101.682V13.7886Z" fill="#3E72F9"/>
<path d="M125.749 8.43867V9.59692H127.24H128.741L128.708 13.2261C128.675 16.7009 128.664 16.8773 128.443 17.1642C127.991 17.7819 127.681 17.9253 126.71 17.9584C126.003 17.9915 125.661 17.9473 125.142 17.7709C124.778 17.6385 124.447 17.5392 124.403 17.5392C124.248 17.5392 124.292 20.1646 124.447 20.2528C124.701 20.4072 128.167 20.4403 128.83 20.2969C130.585 19.9109 131.645 18.8519 131.932 17.2083C132.009 16.745 132.042 14.9028 132.02 11.9134L131.987 7.33558L128.874 7.30248L125.749 7.28042V8.43867Z" fill="#3E72F9"/>
<path d="M134.03 8.38345V9.47551L134.946 9.50861L135.851 9.5417L135.885 13.7555L135.907 17.9804H134.968H134.03V19.1386V20.2969H137.507H140.985V19.1386V17.9804H140.047H139.108L139.13 13.7555L139.163 9.5417L140.08 9.50861L140.985 9.47551V8.38345V7.28035H137.507H134.03V8.38345Z" fill="#3E72F9"/>
<path d="M153.13 8.49376V9.70716L155.039 9.72922L156.938 9.76232L156.972 15.0241L156.994 20.2969H158.594H160.195L160.217 15.0241L160.251 9.76232L162.161 9.72922L164.059 9.70716V8.49376V7.28035H158.594H153.13V8.49376Z" fill="#3E72F9"/>
<path d="M164.832 8.38345V9.48654H165.771H166.709V13.7335V17.9693L165.804 18.0024L164.887 18.0355V19.1386V20.2417L168.398 20.2748L171.898 20.2969V19.1386V17.9804H170.96H170.021V13.7335V9.48654H170.96H171.898V8.38345V7.28035H168.365H164.832V8.38345Z" fill="#3E72F9"/>
<path d="M174.018 13.7557L174.051 20.2419L175.685 20.275L177.308 20.3081V18.0909V15.8847L177.628 15.4435L177.937 15.0132L179.726 17.6607L181.514 20.2971H183.446C184.495 20.2971 185.367 20.264 185.367 20.2309C185.367 20.1978 184.296 18.6314 182.994 16.7451L180.62 13.3145L180.918 12.9174C181.084 12.6968 182.099 11.373 183.181 9.96108C184.263 8.54911 185.146 7.3688 185.146 7.33571C185.146 7.30262 184.318 7.28055 183.303 7.28055H181.448L179.405 10.1265L177.363 12.9615L177.33 10.1155L177.308 7.28055H175.652H173.996L174.018 13.7557Z" fill="#3E72F9"/>
<path d="M157.877 22.3376V23.4958H159.478H161.079V22.3376V21.1793H159.478H157.877V22.3376Z" fill="#3E72F9"/>
<path d="M199.057 22.3376V23.4958H200.603H202.149V22.3376V21.1793H200.603H199.057V22.3376Z" fill="#3E72F9"/>
<path d="M255.032 22.3376V23.4958H256.578H258.123V22.3376V21.1793H256.578H255.032V22.3376Z" fill="#3E72F9"/>
<path d="M133.423 24.8087C131.314 25.1507 129.823 26.1986 128.995 27.9415C128.499 29.0005 128.289 30.0263 128.289 31.4935C128.289 33.7879 128.852 35.3322 130.132 36.6118C130.607 37.0751 131.126 37.4722 131.524 37.6598C133.312 38.4981 135.918 38.476 137.64 37.6046C139.064 36.8876 140.245 35.2771 140.599 33.5893C140.82 32.5304 140.809 30.269 140.588 29.3535C140.047 27.1362 138.523 25.5147 136.525 24.9962C135.73 24.7866 134.151 24.6984 133.423 24.8087ZM135.664 27.4561C136.944 28.118 137.53 29.6182 137.43 31.9568C137.331 34.1409 136.558 35.3984 135.112 35.7514C133.555 36.1154 132.175 35.0454 131.766 33.1371C131.237 30.633 131.943 28.2062 133.423 27.4341C133.908 27.1804 135.145 27.1914 135.664 27.4561Z" fill="#3E72F9"/>
<path d="M189.231 24.9851C187.741 25.4043 186.604 26.2316 186.052 27.3016C185.798 27.787 185.765 27.9855 185.754 28.9011C185.754 29.8277 185.787 30.0263 186.063 30.5778C186.637 31.7471 187.774 32.42 190.148 32.9826C190.921 33.159 191.738 33.4017 191.969 33.5231C192.709 33.8981 192.853 34.6151 192.323 35.2218C191.384 36.2918 188.459 35.9609 186.493 34.56C185.61 33.9312 185.588 33.9643 185.588 35.7293V37.2626L186.228 37.4942C187.631 38.0127 189.684 38.3215 190.821 38.2002L191.362 38.134L191.296 38.6966C191.263 39.0054 191.152 39.3805 191.053 39.5239C190.711 40.0534 189.949 40.1858 188.944 39.8769C188.646 39.7886 188.392 39.7114 188.381 39.7114C188.359 39.7114 188.348 40.1085 188.348 40.5939C188.348 41.333 188.381 41.4984 188.547 41.5646C188.646 41.6088 189.309 41.6418 190.004 41.6418C191.197 41.6418 191.307 41.6198 191.804 41.333C192.786 40.7483 193.316 39.5901 193.162 38.3767L193.085 37.8472L193.659 37.5494C194.454 37.1522 195.248 36.3801 195.591 35.6631C196.154 34.5269 196.065 32.795 195.403 31.8795C194.763 30.997 193.67 30.4675 191.44 29.938C190.799 29.7946 190.137 29.6181 189.949 29.5409C188.812 29.1107 188.746 27.9966 189.817 27.456C190.932 26.8824 192.886 27.1472 194.409 28.0738C194.862 28.3496 195.304 28.5481 195.381 28.526C195.491 28.4819 195.524 28.1289 195.524 27.092V25.7132L195.215 25.5477C195.039 25.4594 194.509 25.2719 194.023 25.1395C192.853 24.8197 190.137 24.7314 189.231 24.9851Z" fill="#3E72F9"/>
<path d="M105.568 26.3309C102.476 35.4865 101.682 37.8582 101.682 37.9464C101.682 38.1119 104.74 38.0898 104.85 37.9244C104.894 37.8472 105.115 37.2405 105.325 36.5676L105.722 35.3542H107.754H109.785L110.205 36.6999L110.635 38.0568H112.225C113.097 38.0568 113.837 38.0126 113.87 37.9685C113.903 37.9244 112.943 34.9901 111.75 31.4602L109.575 25.0402H107.798H106.009L105.568 26.3309ZM108.405 30.7763C108.714 31.8132 109.001 32.7288 109.034 32.817C109.09 32.9605 108.902 32.9825 107.754 32.9825C106.716 32.9825 106.418 32.9494 106.462 32.8391C106.484 32.7729 106.771 31.8463 107.091 30.7984C107.411 29.7615 107.71 28.9011 107.754 28.9011C107.787 28.9011 108.085 29.7504 108.405 30.7763Z" fill="#3E72F9"/>
<path d="M115.283 31.5155L115.316 38.0017H116.752H118.187L118.242 33.5342L118.297 29.0666L120.605 33.2584C121.874 35.5638 123.011 37.5825 123.122 37.759L123.343 38.0679L124.844 38.0348L126.357 38.0017L126.39 31.5155L126.412 25.0403H124.921H123.431V28.7026C123.42 31.9567 123.409 32.3538 123.265 32.1663C123.177 32.045 122.239 30.3903 121.19 28.493L119.291 25.0403H117.27H115.261L115.283 31.5155Z" fill="#3E72F9"/>
<path d="M142.774 31.5154L142.807 38.0016H144.242H145.677L145.732 33.5341L145.788 29.0666L146.075 29.563C146.24 29.8387 147.322 31.7912 148.493 33.9202C149.663 36.0381 150.668 37.8472 150.734 37.9244C150.811 38.0237 151.231 38.0568 152.346 38.0347L153.847 38.0016L153.88 31.5154L153.902 25.0403H152.412H150.921V28.6253C150.921 30.5999 150.888 32.2104 150.844 32.2104C150.789 32.2104 149.862 30.5888 148.769 28.6253L146.781 25.0403H144.761H142.752L142.774 31.5154Z" fill="#3E72F9"/>
<path d="M156 26.1435V27.2466H156.938H157.877V31.4935V35.7404H156.938H155.989L156.022 36.8655L156.055 38.0017L159.511 38.0348L162.955 38.0569V36.9097V35.7514L162.05 35.7183L161.134 35.6852V31.4935V27.3017L162.05 27.2686L162.955 27.2355V26.1435V25.0404H159.478H156V26.1435Z" fill="#3E72F9"/>
<path d="M165.186 31.5155L165.219 38.0017H166.709H168.2L168.255 33.8099L168.31 29.6182L169.458 32.2987L170.595 34.9792L171.71 34.9461L172.825 34.913L173.929 32.2877C174.548 30.8536 175.078 29.6733 175.122 29.6733C175.166 29.6733 175.221 31.5486 175.232 33.832L175.265 38.0017L176.844 38.0348L178.412 38.0679V31.5486V25.0403L176.513 25.0624L174.614 25.0955L173.477 27.6326C172.859 29.0225 172.218 30.4345 172.053 30.7654L171.766 31.3721L170.363 28.2283L168.95 25.0955L167.062 25.0624L165.163 25.0403L165.186 31.5155Z" fill="#3E72F9"/>
<path d="M197.158 26.1434L197.191 27.2355L198.097 27.2686L199.002 27.3017V31.4934V35.6852L198.064 35.7183L197.125 35.7514L197.18 36.8766L197.236 38.0017H200.658H204.081L204.114 36.8655L204.147 35.7404H203.197H202.259V31.4934V27.2465H203.197H204.136V26.1434V25.0403H200.636H197.125L197.158 26.1434Z" fill="#3E72F9"/>
<path d="M206.322 31.5486L206.344 38.0679L207.923 38.0348L209.49 38.0017L209.546 35.63L209.601 33.2584H210.153H210.705L212.471 35.5969C213.443 36.8876 214.337 37.9686 214.459 38.0017C214.58 38.0348 215.496 38.0458 216.49 38.0348L218.29 38.0017L216.126 35.255L213.962 32.5083L214.437 32.2104C214.69 32.056 215.132 31.6589 215.419 31.339C216.302 30.3572 216.623 28.7467 216.214 27.3568C215.982 26.5626 215.143 25.7242 214.238 25.3602C213.597 25.1065 213.465 25.0955 209.932 25.0624L206.289 25.0293L206.322 31.5486ZM212.317 27.6326C212.814 27.8973 213.023 28.3055 213.023 29.0004C213.023 29.7505 212.747 30.28 212.195 30.5999C211.897 30.7764 211.566 30.8426 210.683 30.8647L209.546 30.9088V29.1218V27.3237L210.771 27.4009C211.5 27.4451 212.129 27.5333 212.317 27.6326Z" fill="#3E72F9"/>
<path d="M219.283 31.5155L219.316 38.0017L220.895 38.0348L222.463 38.0679V35.8727V33.6886L222.805 33.2143C223.004 32.9605 223.192 32.784 223.236 32.8392C223.28 32.8833 224.02 33.9975 224.892 35.2991C225.753 36.6008 226.548 37.759 226.647 37.8693C226.813 38.0458 227.034 38.0568 228.734 38.0348L230.644 38.0017L228.248 34.538C226.239 31.6368 225.874 31.0412 225.974 30.8867C226.073 30.7213 229.175 26.6508 230.103 25.4485L230.434 25.0403H228.513L226.603 25.0514L224.671 27.7539C223.611 29.2431 222.673 30.5117 222.595 30.5779C222.485 30.6771 222.463 30.1587 222.485 27.8642L222.518 25.0403H220.884H219.261L219.283 31.5155Z" fill="#3E72F9"/>
<path d="M231.759 31.5155L231.792 38.0017L236.131 38.0348L240.459 38.0569V36.7883V35.5198H237.699H234.938V33.8651V32.2105H237.478H240.017V30.9971V29.7837H237.478H234.938V28.6254V27.4672H237.699H240.459V26.2538V25.0404H236.098H231.737L231.759 31.5155Z" fill="#3E72F9"/>
<path d="M241.342 26.2538V27.4672H243.274H245.206V32.762V38.0569H246.807H248.408L248.43 32.7841L248.463 27.5223L250.373 27.4892L252.272 27.4672V26.2538V25.0404H246.807H241.342V26.2538Z" fill="#3E72F9"/>
<path d="M253.155 26.1435V27.2466H254.038H254.921V31.4935V35.7404H254.038H253.155V36.8986V38.0569H256.578H260V36.8986V35.7404H259.117H258.234V31.4935V27.2466H259.117H260V26.1435V25.0404H256.578H253.155V26.1435Z" fill="#3E72F9"/>
<path d="M31.5202 36.6886C31.1006 36.7879 30.3941 37.0306 29.9524 37.2291C29.1465 37.6042 27.8217 38.5308 27.8217 38.7183C27.8217 38.8727 28.9809 38.7514 30.6921 38.4094C32.9775 37.9682 34.6667 37.9903 37.2611 38.5198C38.3541 38.7514 39.6459 38.9831 40.1316 39.0492C41.048 39.1706 43.4217 39.3691 43.4769 39.325C43.521 39.2809 40.2862 38.0454 38.9834 37.6042C36.1129 36.6335 33.2977 36.2915 31.5202 36.6886Z" fill="#3E72F9"/>
<path d="M63.3715 36.6667C62.0025 36.9535 60.5563 37.6926 59.7945 38.4868L59.4633 38.8288L60.1809 38.7626C60.5673 38.7295 61.6051 38.564 62.4883 38.4096C64.8951 37.9683 66.4518 37.9904 69.0573 38.5309C71.1219 38.9611 75.1847 39.4906 75.1847 39.3252C75.1847 39.259 72.2811 38.1448 70.6802 37.6043C69.8191 37.3065 68.6267 36.9645 68.0306 36.8432C66.6395 36.5454 64.3431 36.4681 63.3715 36.6667Z" fill="#3E72F9"/>
<path d="M17.8301 39.5458C16.1078 39.9208 13.2705 41.2335 12.2658 42.1049C11.7027 42.6013 11.9898 42.5793 13.7452 41.9726C15.5558 41.3548 16.8806 41.1783 18.2938 41.3659C19.6297 41.5424 20.6564 41.9064 22.4671 42.8551C24.2556 43.7927 25.8454 44.4435 27.3579 44.8627C28.3626 45.1385 28.6055 45.1605 31.2 45.2046C33.8828 45.2377 34.0263 45.2377 35.1635 44.962C35.8038 44.8075 36.8416 44.4766 37.4598 44.2339C38.8399 43.6824 40.6063 42.7668 40.1316 42.8551C38.4204 43.1419 35.2849 43.4838 33.8717 43.539C31.0454 43.6493 30.2063 43.4287 26.287 41.6196C23.5159 40.34 22.3567 39.8877 21.1643 39.6009C20.1265 39.3472 18.8127 39.3251 17.8301 39.5458Z" fill="#3E72F9"/>
<path d="M51.172 39.5347C49.9465 39.8215 47.9923 40.6158 46.811 41.3107C44.9121 42.4359 44.8679 42.7447 46.6785 42.116C48.5223 41.4652 49.2509 41.3328 50.6751 41.3328C52.4526 41.3438 53.2586 41.5755 55.8089 42.8551C58.1936 44.0354 59.1872 44.4435 60.6998 44.8627C61.7044 45.1385 61.9473 45.1605 64.5418 45.2046C67.2246 45.2377 67.3681 45.2377 68.5053 44.962C69.1456 44.8075 70.1834 44.4766 70.8017 44.2339C72.1817 43.6824 73.9482 42.7668 73.4734 42.8551C70.89 43.2963 68.6709 43.5059 66.6284 43.5059C63.7138 43.5059 63.8794 43.561 58.4917 41.1011C55.6985 39.8326 54.5393 39.4685 53.0488 39.4244C52.276 39.4024 51.5915 39.4355 51.172 39.5347Z" fill="#3E72F9"/>
<path d="M82.0297 39.8655C80.6276 40.2737 75.8471 43.0645 76.1121 43.3182C76.1342 43.3403 76.918 43.1307 77.8454 42.866C81.3231 41.8511 82.1291 41.7187 85.6951 41.5533L88.4331 41.4209L87.4947 40.8914C86.0374 40.0531 85.1762 39.7883 83.741 39.7552C82.9571 39.7332 82.3499 39.7663 82.0297 39.8655Z" fill="#3E72F9"/>
</g>
<defs>
<clipPath id="clip0_373_1251">
<rect width="260" height="45.2269" fill="white"/>
</clipPath>
</defs>
</svg>
